ply
format ascii 1.0
comment VCGLIB generated
element vertex 238
property float x
property float y
property float z
element face 0
property list uchar int vertex_indices
end_header
79.6349 330.577 0
90.6265 330.583 0
101.412 330.589 0
101.618 330.589 0
79.4143 326.577 0
79.6371 326.577 0
90.6286 326.583 0
101.414 326.589 0
101.412 330.589 0
101.618 330.589 0
92.4182 317.302 0
101.391 59.4987 0
88.3899 130.836 0
88.3916 141.836 0
92.3882 119.835 0
92.3899 130.835 0
144.956 -2.04553 0
92.4182 317.302 0
101.414 326.589 0
154.067 10.7073 0
79.4143 326.577 0
166.956 1.95682 0
168.083 1.95694 0
338.775 207.654 0
338.78 198.101 0
338.787 187.043 0
338.788 185.654 0
92.377 46.1534 0
154.067 10.7073 0
166.956 -2.04318 0
88.3804 68.154 0
154.024 46.1947 0
154.024 46.1947 0
158.067 10.7121 0
158.067 10.7121 0
101.391 59.4987 0
88.4182 317.303 0
88.4182 317.303 0
92.4017 208.325 0
92.4017 208.325 0
88.3983 186.326 0
88.3983 186.326 0
92.3916 141.835 0
92.3916 141.835 0
92.3787 57.1534 0
92.377 46.1534 0
88.3882 119.836 0
88.3882 119.836 0
92.3804 68.1534 0
92.3804 68.1534 0
88.3804 68.154 0
88.3787 57.154 0
88.377 46.154 0
88.377 46.154 0
92.3716 10.6667 0
92.3716 10.6667 0
338.788 185.654 0
2.01 317.6 0
10.0089 330.54 0
325.67 195.159 0
334.708 317.451 0
334.708 317.451 0
338.774 209.158 0
338.774 209.158 0
334.788 185.651 0
334.788 185.651 0
338.813 143.667 0
338.813 143.667 0
334.775 207.651 0
334.774 209.156 0
334.827 120.576 0
334.827 120.576 0
338.858 69.0331 0
338.858 69.0331 0
334.872 46.4149 0
334.872 46.4149 0
338.893 10.795 0
338.893 10.795 0
325.67 195.159 0
338.774 207.654 0
158.024 46.1996 0
166.988 55.4907 0
79.4121 330.577 0
79.4121 330.577 0
10.0111 326.54 0
325.635 133.515 0
325.635 133.515 0
101.421 129.415 0
101.421 129.415 0
101.376 -2.04944 0
91.7198 -2.0463 0
80.746 -2.04272 0
79.3756 -2.04227 0
166.988 59.4907 0
167.173 59.4906 0
11.029 -2.02 0
79.3769 1.95773 0
79.3769 1.95773 0
102.695 1.95013 0
101.377 1.95056 0
91.7211 1.9537 0
80.7473 1.95728 0
158.024 46.1996 0
102.694 -2.04987 0
102.694 -2.04987 0
144.956 1.95447 0
144.956 1.95447 0
101.419 133.415 0
168.083 1.95694 0
166.956 1.95682 0
157.109 1.95577 0
146.135 1.9546 0
348.231 -1.99932 0
348.231 -1.99932 0
384.589 2.02 0
101.419 133.415 0
166.956 -2.04318 0
157.11 -2.04423 0
146.136 -2.0454 0
144.956 -2.04553 0
144.988 55.4933 0
168.083 -2.04306 0
168.083 -2.04306 0
325.627 1.98868 0
325.627 1.98868 0
88.3916 141.836 0
325.724 330.61 0
325.724 330.61 0
101.62 326.589 0
101.62 326.589 0
334.893 10.7926 0
338.859 68.4173 0
338.865 57.9757 0
338.872 46.9182 0
338.872 46.4173 0
384.08 330.61 0
347.731 326.61 0
347.731 326.61 0
325.629 -2.01132 0
396.38 9.85205 0
392.35 318.541 0
144.988 59.4934 0
144.988 59.4934 0
101.39 55.4987 0
101.39 55.4987 0
101.376 -2.04944 0
88.3716 10.6673 0
325.627 59.4713 0
325.627 59.4713 0
167.172 55.4906 0
167.172 55.4906 0
144.988 55.4933 0
145.204 55.4933 0
156.188 55.492 0
166.988 55.4907 0
392.38 9.8476 0
384.591 -1.98 0
102.695 1.95013 0
101.377 1.95056 0
145.205 59.4933 0
156.189 59.492 0
166.988 59.4907 0
167.173 59.4906 0
325.67 199.159 0
325.67 199.159 0
101.425 195.141 0
101.425 195.141 0
325.629 -2.01132 0
326.283 -2.01098 0
337.257 -2.00515 0
347.629 -1.99964 0
101.425 199.141 0
11.0307 1.98 0
-2.03 9.95923 0
88.3716 10.6673 0
326.281 1.98902 0
337.255 1.99485 0
347.627 2.00036 0
348.229 2.00068 0
88.4017 208.326 0
384.08 326.61 0
396.35 318.539 0
79.3756 -2.04227 0
-1.99 317.6 0
1.97 9.96077 0
334.893 10.7926 0
347.629 -1.99964 0
88.4017 208.326 0
88.4 197.326 0
347.627 2.00036 0
348.229 2.00068 0
92.3983 186.325 0
338.708 317.453 0
325.637 129.515 0
347.731 330.61 0
338.827 120.578 0
347.731 330.61 0
347.707 330.61 0
336.715 330.61 0
325.731 330.61 0
347.707 326.61 0
336.715 326.61 0
325.731 326.61 0
325.724 326.61 0
338.708 317.453 0
325.731 330.61 0
334.814 142.576 0
334.813 143.665 0
325.731 326.61 0
325.724 326.61 0
325.637 129.515 0
338.814 142.578 0
334.774 209.156 0
334.775 207.651 0
334.78 198.098 0
334.787 187.041 0
334.858 69.0307 0
334.859 68.4149 0
338.859 68.4173 0
325.627 55.4713 0
334.858 69.0307 0
334.859 68.4149 0
334.865 57.9733 0
334.872 46.9158 0
338.872 46.4173 0
325.627 55.4713 0
92.4 197.325 0
92.3983 186.325 0
101.425 199.141 0
338.827 120.578 0
338.827 121.552 0
338.82 132.61 0
338.814 142.578 0
334.827 121.55 0
334.82 132.608 0
334.814 142.576 0
334.813 143.665 0
92.3882 119.835 0
