ply
format ascii 1.0
comment VCGLIB generated
element vertex 939
property float x
property float y
property float z
element face 0
property list uchar int vertex_indices
end_header
-26.2627 -7.95565 0
-19.6859 -4.96808 0
-23.0474 -5.94292 0
-14.3149 -13.7043 0
-16.7898 -16.1791 0
-12.6062 -15.2685 0
-14.8129 -17.9852 0
-14.8129 -17.9852 0
-16.7899 -16.1791 0
-26.2627 -7.95565 0
-145.56 99.701 0
-149.036 52.8253 0
-149.048 76.1433 0
-145.533 47.4195 0
-145.536 52.8272 0
-136.979 0.17836 0
-136.979 0.17836 0
-149.004 -8.39219 0
-149.011 5.1404 0
-149.011 5.15977 0
-13.9313 168.728 0
83.4541 -84.5461 8
82.9927 -71.4912 7.99969
83.2761 -79.5078 8
83.4541 -84.5461 8
149.329 -66.2023 7.87697
149.391 -69.7414 8
149.531 -77.762 8
9.63127 -126.005 0
6.13234 -126.091 0
9.63192 -126.031 0
6.13298 -126.117 0
9.63224 -126.044 0
6.13331 -126.131 0
10.1378 -146.531 0
6.63883 -146.617 0
10.1381 -146.544 0
6.63915 -146.63 0
10.1387 -146.57 0
6.63979 -146.656 0
10.139 -146.583 0
6.64011 -146.669 0
-0.865858 -126.251 0
-4.36479 -126.337 0
-0.865534 -126.264 0
-4.36447 -126.35 0
-0.864887 -126.29 0
-4.36382 -126.376 0
-0.864564 -126.303 0
-4.3635 -126.39 0
-0.359037 -146.79 0
-3.85797 -146.876 0
-0.358718 -146.803 0
-3.85765 -146.889 0
-0.358081 -146.829 0
-3.85702 -146.915 0
6.63979 -146.656 0
6.64011 -146.669 0
-11.1021 -138.51 0
-11.0885 -138.51 0
-3.85797 -146.876 0
-3.85765 -146.889 0
-3.85702 -146.915 0
-4.36479 -126.337 0
16.8769 -134.41 0.0276282
16.8633 -134.41 0.0273398
-0.358719 -146.803 0
-0.358081 -146.829 0
-0.865534 -126.264 0
-0.865858 -126.251 0
16.8769 -134.41 0.0276282
16.8633 -134.41 0.0273398
9.63224 -126.044 0
9.63192 -126.031 0
9.63127 -126.005 0
16.9383 -137.909 0.0273398
-11.0885 -138.51 0
-11.1021 -138.51 0
16.8769 -134.41 0.0276282
16.8633 -134.41 0.0273398
-11.1635 -135.011 0
19.4353 12.5067 0
16.4766 10.6371 0
21.8497 7.34866 0
18.5187 6.27425 0
22.9061 1.72055 0
19.4122 1.51387 0
8.07207 22.1451 0
6.75046 18.9042 0
13.7073 18.8304 0
11.5169 16.1006 0
13.7238 18.8172 0
11.5308 16.0894 0
43.6481 -7.82897 0
43.5958 -4.32936 0
42.6482 -7.84391 0
42.5959 -4.3443 0
44.4763 3.68468 0
44.424 7.18429 0
43.4764 3.66975 0
43.4241 7.16936 0
150.039 -6.23975 0
149.986 -2.74014 0
150.034 -6.23982 0
149.982 -2.74021 0
142.528 -6.35194 0
142.476 -2.85233 0
157.377 5.37115 0
157.325 8.87076 0
149.867 5.25896 0
149.814 8.75857 0
149.862 5.2589 0
149.81 8.75851 0
227.31 -5.08551 0
231.845 -9.33695 0
227.257 -1.5859 0
235.344 -9.25172 0
245.841 -8.99704 0
242.342 -9.08214 0
245.865 -9.99669 0
242.366 -10.0818 0
234.77 14.3505 0
231.271 14.2654 0
235.344 -9.25234 0
231.845 -9.33743 0
234.77 14.3505 0
6.31678 -25.2972 0
9.64485 -26.3806 0
14.1914 -12.8174 0
16.7337 -15.223 0
15.327 -11.503 0
18.0762 -13.6691 0
18.0762 -13.6691 0
15.327 -11.503 0
16.7337 -15.223 0
14.1914 -12.8174 0
9.64485 -26.3806 0
6.31678 -25.2972 0
18.0762 -13.6691 0
15.327 -11.503 0
16.7339 -15.2228 0
14.1916 -12.8172 0
4.20188 -22.5735 0
3.47696 -19.1494 0
-59.6033 187.932 0
-59.6033 187.932 0
-61.6384 190.779 0
175.93 58.8744 0
168.919 58.8924 0
168.917 58.8924 0
161.9 58.9105 0
159.05 58.9178 0
-14.8129 -17.9852 0
-12.6062 -15.2685 0
-16.7898 -16.1791 0
-14.3149 -13.7043 0
-23.0474 -5.94292 0
-19.6859 -4.96808 0
167.174 73.7801 0.119598
167.174 73.4252 0.117352
167.174 73.7801 0.119598
167.174 73.4252 0.117352
167.173 71.1431 0.10291
175.93 58.8744 0
-149.064 107.706 0
179.999 62.3639 0
-67.343 -2.96363 0
-97.9791 18.7277 0
-149.048 76.1433 0
-135.697 56.8735 0
-97.7024 13.47 0
-100.468 16.2668 0
-145.533 47.4195 0
-95.6723 0.390754 0
-67.3609 0.536329 0
-67.3244 0.536517 0
-95.7933 -3.10991 0
-95.6543 -3.1092 0
-67.3429 -2.96363 0
-77.8132 18.9625 0.00704594
-77.8271 13.8837 0
-97.9791 18.7277 0
-74.3133 18.9529 0.00704594
-74.3271 13.8739 0
-74.334 11.3347 0
-67.3244 0.536517 0
-145.504 -8.40973 0
-145.504 -8.39037 0
-136.982 -3.3217 0
-88.3063 21.5306 0.0196775
-145.504 -8.40973 0
-145.504 -8.39037 0
-145.511 5.14223 0
-97.7024 13.47 0
-100.468 16.2668 0
-84.8871 -8.08979 -0.0376303
-67.3244 0.536517 0
104.795 62.5574 0
103.795 62.56 0
-74.3872 -8.15013 -0.0378212
-74.3871 -8.11869 -0.0376303
-74.3869 -8.05582 -0.0372501
-74.3868 -8.02439 -0.0370607
-67.343 -2.96363 0
103.785 59.06 0
102.862 59.0473 0
-95.6543 -3.1092 0
-95.7933 -3.10991 0
-88.387 -8.08051 -0.0376303
-84.887 -8.09006 -0.0376303
-88.3869 -8.01764 -0.0372501
-84.8869 -8.02719 -0.0372501
-88.3868 -7.98621 -0.0370607
-84.8868 -7.99575 -0.0370607
-88.334 11.3726 0
-84.834 11.363 0
-88.3271 13.9121 0
-84.8271 13.9025 0
-88.3132 18.9911 0.00704594
-84.8132 18.9816 0.00704594
-88.3063 21.5306 0.0196775
-84.8063 21.5211 0.0196775
-48.3492 192.929 0
-49.0968 196.348 0
-13.3581 204.064 0
-13.3494 207.564 0
144.755 -135.171 8
10.1552 193.506 0
10.1547 193.506 0
10.1639 197.006 0
10.1631 197.006 0
240.353 72.6935 0.0294701
240.353 72.6935 0.0294701
243.852 72.7786 0.0294701
154.127 -140.759 7.96127
-67.1549 -136.21 0
230.392 50.4118 0
230.392 50.412 0
233.891 50.4969 0
241.768 14.5207 0
245.267 14.6058 0
144.755 -135.171 8
231.869 -10.3371 0
231.869 -10.3371 0
235.368 -10.252 0
235.368 -10.252 0
163.864 -204.4 0
163.864 -207.9 0
150.366 -125.787 8
153.996 -133.242 8
154.127 -140.759 7.96127
150.366 -125.787 8
150.497 -133.303 8
-85.211 -126.875 -0.0445152
-85.2112 -126.953 -0.0438698
-85.2117 -127.111 -0.0425934
-67.2596 -139.713 0
142.528 -6.35194 0
93.7761 -136.263 8
73.2525 -136.703 7.99494
73.1927 -136.704 7.99428
-157.432 -3.42686 0
151.939 -14.9582 0.12584
93.7583 -132.763 8
93.7011 -132.764 8
73.1775 -133.204 7.99494
-78.2113 -126.972 -0.0438698
-96.3023 -140.335 0.137602
-96.5201 -140.34 0.140811
-136.961 -3.32159 0
-136.961 -3.32159 0
-95.8113 0.390039 0
-95.8113 0.390039 0
-95.8113 0.390039 0
-95.8113 0.390037 0
-67.3064 -2.96344 0
-67.3064 -2.96344 0
-67.3064 -2.96344 0
-67.3064 -2.96344 0
-42.369 0.664835 0
90.9515 66.0388 0
94.1712 -76.918 8
94.0791 -73.4192 8
-88.711 -126.865 -0.0445152
-88.7112 -126.944 -0.0438698
-88.7116 -127.101 -0.0425934
-88.7119 -127.18 -0.0419622
-48.7705 186.997 0
-6.41689 -43.1753 0
-2.91795 -43.0889 0
-6.44617 -42.1938 0
-2.94831 -42.0714 0
-74.5465 -148.433 0
-67.2596 -139.713 0
93.7583 -132.763 8
93.7011 -132.764 8
84.863 -124.411 8
81.3632 -124.477 8
7.57885 -42.8299 0
4.07992 -42.9163 0
7.60352 -43.8296 0
4.10458 -43.916 0
-85.0433 -148.691 0
-85.0449 -148.633 0
-67.1549 -136.21 0
85.5906 -144.996 7.88823
-78.0452 -148.529 0
-78.0459 -148.5 0
104.785 59.0574 0
159.059 62.4178 0
159.059 62.4178 0
179.99 58.864 0
179.99 58.864 0
221.006 62.2584 0
221.006 62.2584 0
93.7583 -132.763 8
93.7011 -132.764 8
82.0907 -145.062 7.89237
221.09 62.2582 0
229.856 72.4382 0.0294701
42.4765 3.65481 0
42.4242 7.15442 0
102.759 62.57 0
-88.6441 144.552 0
97.2789 63.1175 0
-88.542 -148.786 0
-88.5436 -148.729 0
-88.5444 -148.7 0
-96.3023 -140.335 0.137602
-96.5201 -140.34 0.140811
-132.976 49.1441 0
-130.488 51.605 0
220.997 58.7585 0
221.081 58.7582 0
225.703 58.7464 0
240.471 67.855 0.0104872
77.3762 -11.6663 0.150536
82.816 -66.4907 7.76202
230.321 53.3333 0
233.82 53.4184 0
229.974 67.5994 0.0104872
233.473 67.6845 0.0104872
229.856 72.4382 0.0294701
233.355 72.5233 0.0294701
79.9563 -84.6697 8
84.861 -124.353 8
84.861 -124.353 8
84.861 -124.353 8
-95.4325 132.629 0
-95.1067 132.621 0
-78.145 144.285 0
-78.1445 144.437 0
240.889 50.6671 0
244.388 50.7522 0
240.818 53.5886 0
244.317 53.6737 0
240.471 67.8547 0.0104872
243.97 67.9398 0.0104872
82.0928 -145.12 7.88823
82.0928 -145.12 7.88823
82.0928 -145.12 7.88823
86.1956 -184.764 -0.114838
-85.1444 144.463 0
-85.1441 144.539 0
231.271 14.2654 0
-66.1608 135.467 0
-66.6265 135.477 0
-74.6453 144.197 0
-74.6451 144.273 0
-74.6445 144.424 0
-23.9457 0.38 0
-20.4457 0.38 0
-3.15411 -22.9101 0
-3.15411 -22.9101 0
-2.74492 -19.4341 0
-2.74491 -19.4341 0
-66.7057 131.978 0
-95.1067 132.621 0
-95.4325 132.629 0
-0.5 -23.0657 0
-0.5 -19.5657 0
-66.1608 135.467 0
-66.6265 135.477 0
-95.0274 136.12 0
22.777 -2.38275 0
22.777 -2.38275 0
19.303 -1.9568 0
19.303 -1.9568 0
25.3383 -4.86038 0
25.3383 -4.86038 0
25.8873 -8.31706 0
25.8873 -8.31706 0
-9.1455 189.288 0
-5.64557 189.265 0
2.29456 179.778 0
5.79449 179.756 0
-17.0851 16.6438 0
-17.0851 16.6438 0
-14.6103 14.1689 0
-14.6103 14.1689 0
-21.2525 11.1051 0
-18.1677 9.4515 0
-77.527 123.926 0.040361
-77.527 123.933 0.0403149
-77.5269 123.946 0.040223
-17.0851 16.6438 0
-14.6103 14.1689 0
-11.8638 20.7767 0
-10.1118 17.7468 0
-5.61354 23.2423 0
-4.82515 19.8323 0
-23.8682 2.2553 0
-20.3801 1.96617 0
22.9457 0.38 0
19.4457 0.38 0
19.4236 12.5252 0
19.4236 12.5252 0
16.4667 10.6527 0
16.4667 10.6527 0
-84.5269 123.952 0.0403149
-66.6265 135.477 0
-66.1608 135.467 0
-21.2525 11.105 0
1.70526 23.7184 0
1.36526 20.2349 0
44.648 -7.81403 0
44.5958 -4.31442 0
71.1908 4.08374 0
71.1386 7.58335 0
86.4304 -7.1899 0
86.3782 -3.69029 0
142.356 5.14678 0
142.304 8.64639 0
157.549 -6.12757 0
157.549 -6.12757 0
157.497 -2.62796 0
220.146 6.30876 0
220.093 9.80837 0
-14.8129 -17.9852 0
-16.7899 -16.1791 0
-26.2627 -7.95565 0
179.999 62.3639 0
175.939 62.3744 0
168.928 62.3924 0
168.926 62.3924 0
161.909 62.4105 0
-74.027 123.917 0.040361
-74.027 123.924 0.0403149
-74.0269 123.937 0.040223
-74.0269 123.944 0.0401771
152.891 -69.6806 8
153.03 -77.7011 8
153.118 -82.772 8
95.1495 -205.616 0
95.0616 -202.117 0
142.93 -193.912 0
142.842 -190.413 0
142.842 -190.413 0
140.616 -75.6944 8
-88.3871 -8.11168 -0.0378212
-88.3871 -8.11195 -0.0378212
-88.3871 -8.11168 -0.0378212
-84.8871 -8.12149 -0.0378212
-84.8871 -8.12149 -0.0378212
-78.211 -126.894 -0.0445152
-78.211 -126.894 -0.0445152
-74.7111 -126.903 -0.0445152
-74.711 -126.903 -0.0445152
-88.0269 123.955 0.040361
-88.0269 123.955 0.040361
-84.527 123.945 0.040361
-84.527 123.945 0.040361
-77.8063 21.502 0.0196775
-77.8063 21.502 0.0196775
-77.8063 21.502 0.0196775
-74.3063 21.4925 0.0196775
-74.3063 21.4925 0.0196775
143.63 -72.1138 8
140.524 -72.1956 8
20.5465 -207.491 0
20.4586 -203.992 0
20.4586 -203.992 0
73.9057 -195.647 0
73.8177 -192.148 0
73.8177 -192.148 0
20.2827 -196.994 0
20.1948 -193.496 0
15.6407 -197.111 0
15.5528 -193.612 0
-6.85862 -197.677 0
-6.94654 -194.178 0
-23.0147 6.81482 0
-19.6582 5.82272 0
-21.2525 11.105 0
-18.1677 9.45149 0
220.317 -5.18996 0
220.265 -1.69035 0
227.138 6.41321 0
227.086 9.91282 0
-88.5412 -148.816 0
-88.5412 -148.816 0
-85.0425 -148.72 0
-85.0425 -148.72 0
-12.1503 -197.81 0
-12.2383 -194.311 0
-12.2383 -194.311 0
15.9045 -207.608 0
15.8165 -204.109 0
-6.59483 -208.173 0
-6.68276 -204.674 0
-11.8865 -208.306 0
-11.9745 -204.807 0
4.061 -41.8907 0
7.56082 -41.8558 0
-50.592 203.187 0
-51.3396 206.606 0
-95.1067 132.621 0
-95.4325 132.629 0
-17.0849 16.644 0
-14.61 14.1691 0
-11.7488 26.6012 0
-8.31754 25.9109 0
-6.59355 40.582 0
-10.0928 40.6531 0
93.8333 -136.262 8
93.8333 -136.262 8
93.8333 -136.262 8
144.68 -131.672 8
144.68 -131.672 8
-74.027 123.917 0.040361
-74.027 123.924 0.0403149
-74.0269 123.937 0.040223
-74.0269 123.944 0.0401771
-74.6453 144.197 0
-74.6451 144.273 0
-74.6445 144.424 0
-0.5 23.8257 0
-0.5 20.3257 0
15.8165 -204.109 0
0.700487 -189.727 0
0.577817 -184.756 0
0.566939 -184.315 0
-149.004 -8.41109 0
-149.004 -8.41155 0
-96.5951 -136.841 0.140811
-96.5951 -136.841 0.140811
-96.5951 -136.841 0.140811
-149.033 47.4176 0
-145.511 5.16206 0
-145.511 5.16159 0
16.9519 -137.909 0.0276282
16.9519 -137.909 0.0276282
16.9519 -137.909 0.0276282
73.1177 -133.205 7.99428
73.1177 -133.205 7.99428
73.1177 -133.205 7.99428
20.1948 -193.496 0
-41.369 0.669977 0
-40.4111 0.685462 0
-149.06 99.6991 0
-145.548 76.1451 0
-67.0799 -139.709 0
-67.0799 -139.709 0
-67.0799 -139.709 0
-11.1771 -135.011 0
-11.1771 -135.011 0
-11.1771 -135.011 0
-11.9745 -204.807 0
-6.68276 -204.674 0
7.69836 -189.555 0
7.57569 -184.584 0
-16.5501 134.344 0
-16.5501 134.344 0
-16.5501 134.344 0
-66.2392 131.968 0
-66.24 131.968 0
-66.2392 131.968 0
-77.527 123.926 0.040361
-77.527 123.933 0.0403149
-77.5269 123.946 0.040223
-78.145 144.285 0
-78.1445 144.437 0
-42.351 -2.83512 0
-41.351 -2.82998 0
-8.39906 -26.7911 0
-8.39906 -26.7911 0
-5.07233 -25.7035 0
-40.3509 -2.82483 0
-95.3525 136.128 0
-95.3533 136.128 0
-95.3525 136.128 0
-145.564 107.683 0
-2.92112 -184.843 0
-2.932 -184.402 0
220.997 58.7585 0
240.889 50.6671 0
240.818 53.5886 0
225.712 62.2463 0
221.09 62.2582 0
-84.5269 123.952 0.0403149
-85.1444 144.463 0
-85.1441 144.539 0
9.63095 -125.992 0
9.63095 -125.992 0
6.13201 -126.078 0
6.13201 -126.078 0
-2.89329 -44.0886 0
-6.39222 -44.175 0
11.0637 -184.056 0
7.56481 -184.143 0
-0.357762 -146.842 0
-0.357762 -146.842 0
-3.8567 -146.928 0
-3.8567 -146.928 0
-9.56891 122.371 0
-9.56891 122.371 0
-6.06898 122.349 0
-6.06898 122.349 0
1.42628 42.5557 0
4.92621 42.5336 0
3.47696 -19.1494 0
4.20188 -22.5735 0
14.1916 -12.8172 0
16.7339 -15.2228 0
15.327 -11.503 0
18.0762 -13.6691 0
-88.6441 144.552 0
-78.0452 -148.529 0
-74.5465 -148.433 0
-78.0459 -148.5 0
-74.5472 -148.405 0
-78.0475 -148.444 0
-74.5488 -148.349 0
-78.0482 -148.416 0
-74.5495 -148.321 0
-78.2119 -127.209 -0.0419622
-74.7119 -127.218 -0.0419622
-78.2117 -127.13 -0.0425934
-74.7117 -127.139 -0.0425934
-78.2113 -126.973 -0.0438698
-74.7113 -126.982 -0.0438698
-9.31491 162.514 0
-9.31491 162.514 0
-5.81498 162.492 0
2.06208 143.037 0
2.06208 143.037 0
5.56201 143.015 0
5.56201 143.014 0
-88.542 -148.786 0
-85.0433 -148.691 0
-88.5436 -148.729 0
-85.0449 -148.634 0
-88.5444 -148.7 0
-85.0457 -148.606 0
-88.7119 -127.18 -0.0419622
-85.2119 -127.189 -0.0419622
-88.7116 -127.101 -0.0425934
-85.2117 -127.111 -0.0425934
-88.7112 -126.944 -0.0438698
-85.2112 -126.953 -0.0438698
-88.711 -126.865 -0.0445152
-85.211 -126.875 -0.0445152
-9.20521 179.851 0
-5.70528 179.829 0
2.238 170.839 0
5.73793 170.817 0
-10.0798 41.6285 0
-6.57989 41.6064 0
-10.0735 42.6285 0
-6.57356 42.6064 0
-74.6442 144.5 0
-74.6442 144.5 0
-78.1442 144.513 0
-78.1442 144.513 0
-65.7085 196.475 0
-67.7436 199.322 0
85.5906 -144.996 7.88823
85.5885 -144.938 7.89237
84.8631 -124.411 8
7.33026 27.8571 0
4.02542 26.7047 0
82.0907 -145.062 7.89237
81.3652 -124.535 8
81.3632 -124.477 8
-96.5201 -140.34 0.140811
-96.3023 -140.335 0.137602
-67.2596 -139.713 0
-96.3773 -136.836 0.137602
-67.3345 -136.214 0
-67.1549 -136.21 0
82.0907 -145.062 7.89237
73.2525 -136.703 7.99494
73.1927 -136.704 7.99428
4.91988 41.5336 0
1.41995 41.5558 0
4.92611 40.5786 0
1.42676 40.5109 0
151.357 -182.784 0.135367
154.885 -184.337 0.0584746
85.5906 -144.996 7.88823
151.26 -177.215 0.644968
154.857 -182.723 0.135367
11.5308 16.0894 0
13.7238 18.8172 0
11.5169 16.1005 0
13.7073 18.8304 0
84.863 -124.411 8
73.2525 -136.703 7.99494
73.1927 -136.704 7.99428
79.3182 -66.6143 7.76202
88.871 -73.5564 8
150.627 -140.82 7.96127
150.627 -140.82 7.96127
154.76 -177.154 0.644968
149.619 -82.8327 8
149.619 -82.8329 8
153.865 -125.726 8
153.865 -125.726 8
148.439 -15.0189 0.12584
152.829 -66.1412 7.87697
152.829 -66.1414 7.87697
81.3632 -124.477 8
170.674 73.7794 0.119598
170.674 73.7791 0.119598
13.9447 130.893 0
13.9447 130.893 0
13.9447 130.893 0
94.6854 56.5723 0
91.0789 54.2723 0
-77.8872 -8.14058 -0.0378212
-74.3872 -8.15013 -0.0378212
-77.8871 -8.10915 -0.0376303
-74.3871 -8.11869 -0.0376303
-77.8869 -8.04628 -0.0372501
-74.3869 -8.05582 -0.0372501
-77.8868 -8.01484 -0.0370607
-74.3868 -8.02439 -0.0370607
-77.834 11.3439 0
-74.334 11.3344 0
-77.8271 13.8835 0
-74.3271 13.8739 0
-77.8132 18.9625 0.00704594
-74.3133 18.953 0.00704594
-27.0497 3.90636 0
-13.3843 193.564 0
71.3103 -3.91537 0
78.8844 -3.80223 0
78.9201 -3.8017 0
-13.3756 197.064 0
19.4355 12.5065 0
16.4767 10.6369 0
26.5094 7.42534 0
25.6824 4.02446 0
78.7127 7.69648 0
78.765 4.19687 0
78.7483 7.69702 0
78.8006 4.19741 0
86.2064 7.80842 0
86.2587 4.30881 0
2.35427 189.215 0
79.3182 -66.6143 7.76202
79.4949 -71.6149 7.99969
79.7782 -79.6314 8
5.8542 189.193 0
10.1814 204.006 0
10.1901 207.506 0
-13.3843 193.564 0
-13.3756 197.064 0
2.18486 162.441 0
5.68479 162.419 0
2.21143 166.64 0
5.71136 166.618 0
2.21143 166.64 0
5.71136 166.618 0
13.9946 134.393 0
-9.28834 166.713 0
-5.78841 166.691 0
-9.28834 166.713 0
-5.78841 166.691 0
-9.26177 170.912 0
-5.76184 170.89 0
-16.63 130.845 0
-16.5614 130.843 0
13.6512 130.897 0
-77.8872 -8.14058 -0.0378212
-77.8871 -8.10915 -0.0376303
-77.8869 -8.04628 -0.0372501
-16.63 130.845 0
-16.5614 130.843 0
1.93235 122.535 0
1.93183 122.453 0
1.93131 122.371 0
1.93086 122.298 0
142.961 -193.912 0
143.024 -193.91 0
163.656 -197.4 0
163.795 -197.4 0
163.864 -197.4 0
-16.63 130.845 0
-16.5614 130.843 0
2.0618 142.992 0
-9.43889 142.92 0
-9.43861 142.964 0
-9.43829 143.015 0
-9.43797 143.065 0
-9.43769 143.109 0
-77.8132 18.9625 0.00704594
-77.8271 13.8837 0
-95.6543 -3.1092 0
-95.7933 -3.10991 0
13.9946 134.393 0
-6.06853 122.421 0
13.6512 130.897 0
5.43274 122.585 0
5.43228 122.513 0
5.43176 122.431 0
5.43124 122.348 0
5.43079 122.276 0
-149.011 5.15977 0
-149.011 5.1404 0
-136.982 -3.3217 0
13.9946 134.393 0
-84.8063 21.5211 0.0196775
-84.8132 18.9816 0.00704594
-67.343 -2.96363 0
13.6512 130.897 0
-5.93868 142.942 0
-5.93836 142.993 0
-5.93804 143.043 0
-5.93776 143.087 0
1.93086 122.298 0
5.43079 122.276 0
1.93131 122.371 0
5.43124 122.348 0
1.93183 122.453 0
5.43176 122.431 0
1.93235 122.535 0
5.43228 122.513 0
1.93281 122.607 0
5.43274 122.585 0
1.99408 132.291 0
5.49401 132.269 0
1.99408 132.291 0
5.49401 132.269 0
2.06088 142.847 0
5.56081 142.825 0
2.06116 142.891 0
5.56109 142.869 0
2.06148 142.942 0
5.56141 142.92 0
2.0618 142.992 0
5.56173 142.97 0
170.674 73.4246 0.117352
170.673 71.1421 0.10291
161.9 58.9105 0
159.05 58.9178 0
-9.56846 122.443 0
-6.06853 122.421 0
-9.56794 122.526 0
-6.06801 122.504 0
-9.56742 122.608 0
-6.06749 122.586 0
-9.56696 122.68 0
-6.06703 122.658 0
-9.50569 132.364 0
-6.00576 132.342 0
-9.50569 132.364 0
-6.00576 132.342 0
-9.43889 142.92 0
-5.93896 142.898 0
-9.43861 142.964 0
-5.93868 142.942 0
-9.43829 143.015 0
-5.93836 142.993 0
-9.43797 143.065 0
-5.93804 143.043 0
-9.43769 143.109 0
-5.93776 143.087 0
71.3626 -7.41498 0
80.874 -11.543 0.150536
142.873 -190.413 0
142.936 -190.411 0
142.967 -190.41 0
151.385 -184.398 0.0584746
142.873 -190.413 0
142.936 -190.411 0
142.967 -190.41 0
163.586 -193.9 0
163.656 -193.9 0
163.795 -193.9 0
163.864 -193.9 0
143.105 -200.91 0
143.137 -200.909 0
163.795 -204.4 0
10.139 -146.583 0
143.193 -204.409 0
-11.1021 -138.51 0
-11.0885 -138.51 0
6.13298 -126.117 0
6.13234 -126.091 0
154.898 -185.087 0.0335623
163.586 -193.9 0
163.656 -193.9 0
163.795 -193.9 0
163.864 -193.9 0
94.8857 -195.12 0
94.7978 -191.621 0
94.796 -195.122 0
94.7081 -191.623 0
94.6166 -195.126 0
94.5287 -191.628 0
94.5269 -195.129 0
94.439 -191.63 0
74.2643 -195.638 0
74.1764 -192.139 0
74.1747 -195.64 0
74.0867 -192.141 0
73.9953 -195.645 0
73.9074 -192.146 0
95.0598 -205.619 0
94.9719 -202.12 0
94.8804 -205.623 0
94.7925 -202.124 0
94.7907 -205.625 0
94.7028 -202.127 0
74.5281 -206.135 0
74.4402 -202.636 0
74.4384 -206.137 0
74.3505 -202.638 0
74.2591 -206.141 0
74.1712 -202.642 0
74.1694 -206.144 0
74.0815 -202.645 0
94.7978 -191.621 0
73.9074 -192.146 0
74.0867 -192.141 0
74.1764 -192.139 0
82.6959 -184.868 -0.114186
82.6956 -184.773 -0.114838
