ply
format ascii 1.0
comment VCGLIB generated
element vertex 1201
property float x
property float y
property float z
element face 0
property list uchar int vertex_indices
end_header
198.805 -179.035 0.0195923
198.802 -178.89 0.0195923
198.801 -178.871 0.0195923
198.795 -178.583 0.0195923
198.793 -178.5 0.0195923
198.705 -174.689 0.0195923
198.705 -174.689 0.0195923
198.628 -171.306 0.0195923
198.485 -165.096 0.0195923
198.484 -165.019 0.0195923
198.48 -164.882 0.0195923
198.471 -164.464 0.0195923
198.47 -164.423 0.0195923
198.468 -164.324 0.0195923
202.306 -179.045 0.0195923
202.304 -178.955 0.0195923
202.301 -178.81 0.0195923
202.3 -178.791 0.0195923
202.294 -178.503 0.0195923
202.292 -178.42 0.0195923
202.205 -174.609 0.0195923
202.205 -174.609 0.0195923
202.127 -171.226 0.0195923
201.984 -165.016 0.0195923
201.983 -164.939 0.0195923
201.979 -164.802 0.0195923
201.97 -164.383 0.0195923
201.969 -164.343 0.0195923
198.47 -164.423 0.0195923
198.468 -164.324 0.0195923
202.306 -179.045 0.0195923
192.509 -173.061 0.195892
192.751 -173.059 0.195892
192.945 -173.058 0.195892
192.953 -173.058 0.195892
201.983 -164.939 0.0195923
201.979 -164.802 0.0195923
201.97 -164.383 0.0195923
201.969 -164.343 0.0195923
192.509 -173.061 0.195892
198.805 -179.035 0.0195923
192.731 -169.56 0.195892
192.925 -169.558 0.195892
202.301 -178.81 0.0195923
202.304 -178.955 0.0195923
202.306 -179.045 0.0195923
192.731 -169.56 0.195892
192.925 -169.558 0.195892
192.933 -169.558 0.195892
193.643 -169.554 0.195892
193.924 -169.553 0.195892
200.367 -169.516 0.195892
200.367 -169.516 0.195892
210.368 -169.459 0.195892
210.576 -169.458 0.195892
192.509 -173.061 0.195892
192.751 -173.059 0.195892
192.945 -173.058 0.195892
192.953 -173.058 0.195892
193.663 -173.054 0.195892
193.944 -173.053 0.195892
200.387 -173.016 0.195892
200.387 -173.016 0.195892
210.388 -172.959 0.195892
262.752 -122.25 0.0195923
262.572 -122.253 0.0195923
262.568 -122.253 0.0195923
257.785 -122.33 0.0195923
256.508 -122.351 0.0195923
250.069 -122.455 0.0195923
249.886 -122.458 0.0195923
249.881 -122.458 0.0195923
249.524 -122.463 0.0195923
262.784 -118.749 0.0195923
262.695 -118.75 0.0195923
262.515 -118.753 0.0195923
262.512 -118.753 0.0195923
257.729 -118.831 0.0195923
256.452 -118.851 0.0195923
250.013 -118.955 0.0195923
249.83 -118.958 0.0195923
249.825 -118.958 0.0195923
258.302 -129.097 0.0195847
258.302 -129.091 0.0195847
250.013 -118.955 0.0195923
249.83 -118.958 0.0195923
249.825 -118.958 0.0195923
249.524 -122.463 0.0195923
258.302 -129.097 0.0195847
258.302 -129.091 0.0195847
262.572 -122.253 0.0195923
262.752 -122.25 0.0195923
262.784 -118.749 0.0195923
14.7338 -179.58 0
11.2782 -168.257 0
7.77823 -168.244 0
4.27825 -168.23 0
11.2463 -176.388 0
7.74632 -176.374 0
4.24635 -176.36 0
11.2338 -179.566 0
7.73385 -179.552 0
4.23387 -179.538 0
-6.20958 -165.11 0
-9.70955 -165.096 0
-13.2095 -165.083 0
-16.7095 -165.069 0
-6.22166 -168.189 0
-9.72164 -168.175 0
-13.2216 -168.161 0
-16.7216 -168.147 0
-6.25357 -176.319 0
-9.75355 -176.305 0
-13.2535 -176.292 0
-16.7535 -176.278 0
20.0409 -170.542 0.195892
-365.043 37.0685 0
-365.875 30.0737 0
-365.665 30.0724 0
-365.213 30.0695 0
-365.088 30.0687 0
-365.235 26.5696 0
-365.111 26.5688 0
-390.316 16.2306 0
-390.338 12.7307 0
-390.361 9.23076 0
-390.383 5.73083 0
-375.942 16.1382 0
-375.964 12.6383 0
-375.987 9.13833 0
-376.009 5.63841 0
-365.965 16.074 0
-365.987 12.5741 0
-366.01 9.07418 0
-366.033 5.57425 0
-365.755 16.0727 0
-365.778 12.5728 0
-365.8 9.07283 0
-365.823 5.57291 0
-365.303 16.0698 0
-365.325 12.5699 0
-365.348 9.06992 0
-365.37 5.57 0
-390.383 5.73083 0
54.2906 -170.348 0.195892
54.4083 -170.347 0.195892
56.3301 -170.336 0.195892
60.331 -170.313 0.195892
64.3319 -170.29 0.195892
65.9337 -170.281 0.195892
66.3365 -170.279 0.195892
66.7489 -170.277 0.195892
62.139 -180.003 0.0336609
62.139 -180.003 0.0336609
54.4083 -170.347 0.195892
54.2906 -170.348 0.195892
200.176 -238.79 0.0195923
203.678 -238.818 0.0195923
194.137 -248.692 0.0386963
194.094 -248.69 0.0386963
200.567 -255.83 0.0195923
194.137 -248.692 0.0386963
194.094 -248.69 0.0386963
204.069 -255.879 0.0195923
204.066 -255.75 0.0195923
203.921 -249.414 0.0195923
203.872 -247.295 0.0195923
203.678 -238.818 0.0195923
-69.6508 37.3536 9.80753
-69.6508 37.3536 9.80753
-69.6086 5.85366 9.80753
-69.9935 5.85314 9.85278
-99.5703 -3.6702 9.34171
-70.0348 37.3531 9.80101
-70.0301 33.8531 9.80101
-70.0254 30.3531 9.80101
-70.0207 26.8531 9.80101
-69.6508 37.3536 9.80753
-69.6461 33.8536 9.80753
-69.6414 30.3536 9.80753
-69.6367 26.8536 9.80753
-69.6508 37.3536 9.80753
-69.6461 33.8536 9.80753
-69.6414 30.3536 9.80753
-69.6367 26.8536 9.80753
15.7586 68.0174 0
15.7586 68.0174 0
-15.741 68.1764 0
-12.2411 68.1587 0
-8.74111 68.1411 0
-5.24116 68.1234 0
-15.7395 68.4683 0
-12.2396 68.4507 0
-8.73964 68.433 0
-5.23968 68.4153 0
-15.4475 126.349 0
-11.9475 126.332 0
-8.44755 126.314 0
-4.9476 126.296 0
5.25871 68.0704 0
8.75867 68.0527 0
12.2586 68.0351 0
15.7586 68.0174 0
5.25871 68.0704 0
8.75867 68.0528 0
12.2586 68.0351 0
15.7586 68.0174 0
5.26018 68.3624 0
8.76014 68.3447 0
12.2601 68.327 0
15.76 68.3094 0
329.158 -172.283 0.195892
332.194 -172.266 0.195892
332.194 -172.266 0.195892
201.557 -298.954 0.0195923
201.555 -298.864 0.0195923
211.312 -307.88 0.00434875
211.252 -307.881 0.00434875
319.874 -117.828 0.0195923
320 -117.826 0.0195923
320.277 -117.822 0.0195923
320.488 -117.818 0.0195923
321.527 -117.802 0.0195923
258.639 -238.296 0.0195847
258.668 -247.963 0.0195847
258.668 -247.965 0.0195847
258.696 -256.831 0.0195847
258.696 -256.843 0.0195847
211.273 -245.907 0.0043335
211.27 -245.907 0.0043335
200.567 -255.83 0.0195923
255.139 -238.299 0.0195847
255.139 -238.307 0.0195847
255.168 -247.974 0.0195847
255.168 -247.976 0.0195847
255.196 -256.841 0.0195847
255.139 -238.299 0.0195847
255.139 -238.307 0.0195847
265.82 -249.782 0.0043335
194.7 -311.171 0.0336609
194.715 -311.171 0.0336609
201.974 -317.159 0.0195923
201.977 -317.254 0.0195923
201.98 -317.387 0.0195923
205.476 -317.174 0.0195923
205.479 -317.307 0.0195923
205.489 -317.737 0.0195923
310.487 -112.973 0.00434875
310.496 -113.917 0.00434875
310.496 -113.977 0.00434875
310.496 -113.992 0.00434875
305.72 -118.057 0.0195923
305.507 -118.06 0.0195923
305.46 -118.061 0.0195923
305.267 -118.064 0.0195923
304.375 -118.078 0.0195923
375.407 -172.02 0.195892
265.845 -246.282 0.0043335
-16.2564 -49.6151 0
-12.7564 -49.6288 0
-9.25645 -49.6426 0
-5.75647 -49.6563 0
-16.2544 -49.1191 0
-12.7545 -49.1328 0
-9.2545 -49.1466 0
-5.75453 -49.1603 0
-16.2544 -49.1191 0
-12.7545 -49.1328 0
-9.2545 -49.1466 0
-5.75453 -49.1603 0
315.061 -233.387 0.00434875
246.789 -249.651 0.0043335
246.693 -249.65 0.0043335
311.51 -227.682 0.00434875
311.459 -221.947 0.00434875
-105.519 16.3055 9.19791
-105.514 12.8055 9.19791
-105.509 9.30553 9.19791
-105.505 5.80553 9.19791
-70.0066 16.3531 9.80101
-70.0019 12.8531 9.80101
-69.9973 9.35314 9.80101
-69.9926 5.85314 9.80101
-69.6227 16.3537 9.80753
-69.618 12.8537 9.80753
-69.6133 9.35366 9.80753
-69.6086 5.85366 9.80753
255.139 -238.299 0.0195847
255.139 -238.307 0.0195847
58.6391 -180.025 0.0336609
58.6391 -180.025 0.0336609
194.691 -307.671 0.0336609
194.691 -307.671 0.0336609
194.691 -307.671 0.0336609
160.312 -364.641 0
160.343 -368.14 0
160.373 -371.64 0
160.404 -375.14 0
10.7743 -293.632 0
7.63809 -295.185 0
4.50187 -296.739 0
1.36565 -298.293 0
1.36616 -298.294 0
1.36565 -298.293 0
15.7136 -238.271 0
12.2411 -238.71 0
8.76871 -239.148 0
5.29628 -239.587 0
-6.26605 -179.497 0
-9.76602 -179.483 0
-13.266 -179.47 0
-16.766 -179.456 0
304.45 -246.548 0.0043335
313.457 -246.61 0.0043335
321.092 -246.663 0.0043335
321.288 -246.664 0.0043335
321.941 -246.669 0.0043335
322.106 -246.67 0.0043335
322.532 -246.673 0.0043335
322.609 -246.673 0.0043335
14.7903 -165.193 0
11.2903 -165.179 0
7.79031 -165.165 0
4.29034 -165.151 0
-5.88838 -83.2654 0
-9.38835 -83.2517 0
-12.8883 -83.238 0
-16.3883 -83.2242 0
54.1013 -173.849 0.195892
54.3105 -173.847 0.195892
54.4282 -173.847 0.195892
56.3501 -173.836 0.195892
60.3509 -173.813 0.195892
64.3518 -173.79 0.195892
65.9536 -173.781 0.195892
66.3564 -173.779 0.195892
211.288 -311.38 0.00434875
211.102 -311.382 0.00434875
210.932 -311.384 0.00434875
210.525 -311.388 0.00434875
201.557 -298.954 0.0195923
201.555 -298.864 0.0195923
304.108 -121.583 0.0195923
304.386 -250.048 0.0043335
304.426 -250.048 0.0043335
313.433 -250.11 0.0043335
321.067 -250.163 0.0043335
321.263 -250.164 0.0043335
321.917 -250.168 0.0043335
322.082 -250.17 0.0043335
322.508 -250.173 0.0043335
15.2453 -49.2427 0
15.2453 -49.2427 0
11.7453 -49.229 0
8.24537 -49.2152 0
4.74539 -49.2015 0
-5.24116 68.1234 0
-8.74111 68.1411 0
-12.2411 68.1587 0
-15.741 68.1764 0
-15.741 68.1764 0
205.489 -317.737 0.0195923
250.978 -307.472 0.00434875
251.251 -307.469 0.00434875
251.749 -307.464 0.00434875
253.84 -307.442 0.00434875
257.096 -307.409 0.00434875
262.824 -307.35 0.00434875
263.104 -307.347 0.00434875
263.135 -307.346 0.00434875
263.305 -307.345 0.00434875
16.0521 126.19 0
12.5522 126.208 0
9.05223 126.226 0
5.55227 126.243 0
-20.6595 298.44 0
-23.8669 297.039 0
-27.0743 295.638 0
-30.2817 294.237 0
-29.096 353.236 0
-29.0955 353.235 0
-29.0955 353.235 0
-31.852 351.078 0
-34.608 348.921 0
-37.364 346.763 0
-494.25 240.908 0
-490.75 240.9 0
-487.25 240.891 0
-483.75 240.883 0
1.35581 -298.273 0
4.49223 -296.72 0
7.62864 -295.166 0
10.7651 -293.613 0
-15.5383 -242.217 0
-12.0659 -241.779 0
-8.59345 -241.34 0
-5.12101 -240.902 0
-102.562 46.8689 9.05901
20.183 -288.97 0
23.3192 -287.417 0
26.4554 -285.863 0
29.5916 -284.309 0
20.1743 -288.953 0
23.3107 -287.399 0
26.4471 -285.846 0
29.5836 -284.293 0
248.691 -364.23 0
248.673 -367.73 0
248.655 -371.23 0
248.637 -374.73 0
212.706 -385.221 0
212.733 -388.72 0
212.759 -392.22 0
212.785 -395.72 0
197.601 -364.333 0
197.627 -367.833 0
197.654 -371.333 0
197.68 -374.833 0
160.495 -385.64 0
160.525 -389.14 0
160.556 -392.64 0
160.586 -396.139 0
351.788 -164.218 0.0043335
351.788 -164.235 0.0043335
351.789 -164.258 0.0043335
356.147 -168.629 0.195892
356.153 -168.629 0.195892
356.212 -168.629 0.195892
-514.23 177.522 0
-510.73 177.544 0
-507.23 177.565 0
-503.73 177.587 0
-390.248 26.7304 0
-390.225 30.2303 0
-390.203 33.7303 0
-390.18 37.2302 0
-365.246 5.56919 0
-365.223 9.06912 0
-365.201 12.569 0
-365.178 16.069 0
-105.533 26.8055 9.19791
-105.537 30.3055 9.19791
-105.542 33.8055 9.19791
-105.547 37.3055 9.19791
412.43 -62.6546 0
408.93 -62.6814 0
405.43 -62.7082 0
401.93 -62.7351 0
412.494 -70.9647 0
408.994 -70.9915 0
405.494 -71.0183 0
401.994 -71.0451 0
412.512 -73.3416 0
409.012 -73.3684 0
405.512 -73.3953 0
402.012 -73.4221 0
-69.6086 5.85366 9.80753
-69.6086 5.85366 9.80753
-69.6133 9.35366 9.80753
-69.618 12.8537 9.80753
-69.6227 16.3537 9.80753
68.2741 27.3602 10.9843
68.2599 30.8601 10.9843
68.2457 34.3601 10.9843
68.2315 37.8601 10.9843
68.2315 37.8601 10.9843
391.406 -59.594 0
387.906 -59.6209 0
384.406 -59.6477 0
391.431 -62.8155 0
387.931 -62.8423 0
384.431 -62.8692 0
391.494 -71.1256 0
387.994 -71.1524 0
384.495 -71.1792 0
111.505 6.71166 10.4628
111.445 10.2112 10.4628
111.386 13.7106 10.4628
111.326 17.2101 10.4628
384.956 13.6236 0
387.469 16.0592 0
389.983 18.4948 0
392.496 20.9304 0
379.995 -20.5173 0
383.434 -19.8678 0
386.873 -19.2182 0
390.312 -18.5687 0
401.906 -59.5136 0
405.406 -59.4867 0
408.905 -59.4599 0
412.405 -59.4331 0
381.013 -73.5826 0
384.513 -73.5562 0
388.013 -73.5294 0
391.513 -73.5026 0
402.921 -162.591 0
406.421 -162.555 0
409.92 -162.518 0
413.42 -162.482 0
204.069 -255.879 0.0195923
9.04403 314.492 0
254.899 -160.678 0.0195847
254.899 -160.678 0.0195847
266.264 -172.641 0.195892
201.99 -317.817 0.0195923
201.99 -317.817 0.0195923
201.99 -317.817 0.0195923
206.44 -359.193 0.0195923
6.56076 312.026 0
266.283 -169.141 0.195892
68.2314 37.8601 10.9887
107.804 47.713 10.5206
375.387 -168.52 0.195892
356.232 -172.129 0.195892
356.232 -172.129 0.195892
356.232 -172.129 0.195892
341.29 -168.714 0.195892
341.29 -168.714 0.195892
341.29 -168.714 0.195892
335.23 -172.248 0.195892
335.23 -172.248 0.195892
329.138 -168.783 0.195892
321.726 -172.325 0.195892
321.726 -172.325 0.195892
321.726 -172.325 0.195892
303.227 -168.931 0.195892
303.227 -168.931 0.195892
303.227 -168.931 0.195892
266.302 -172.641 0.195892
266.302 -172.641 0.195892
266.302 -172.641 0.195892
369.874 -0.989989 0
372.388 1.44561 0
374.901 3.88121 0
377.415 6.31681 0
68.3594 6.36034 10.9843
68.3594 6.36034 10.9843
69.1944 6.36373 10.9812
246.853 -169.251 0.195892
246.853 -169.251 0.195892
246.853 -169.251 0.195892
210.596 -172.958 0.195892
210.596 -172.958 0.195892
210.596 -172.958 0.195892
400.63 -16.6201 0
404.069 -15.9706 0
407.508 -15.321 0
410.948 -14.6715 0
311.764 -256.118 0.00434875
311.763 -256.034 0.00434875
311.761 -255.857 0.00434875
321.288 -246.664 0.0043335
321.941 -246.669 0.0043335
322.106 -246.67 0.0043335
322.532 -246.673 0.0043335
322.609 -246.673 0.0043335
192.489 -169.561 0.195892
192.489 -169.561 0.195892
192.489 -169.561 0.195892
133.211 -173.398 0.195892
133.211 -173.398 0.195892
304.375 -118.078 0.0195923
305.267 -118.064 0.0195923
305.46 -118.061 0.0195923
305.507 -118.06 0.0195923
305.719 -118.057 0.0195923
312.269 -117.951 0.0195923
312.63 -117.945 0.0195923
312.63 -117.945 0.0195923
319.598 -117.833 0.0195923
319.874 -117.828 0.0195923
320 -117.826 0.0195923
320.277 -117.822 0.0195923
320.488 -117.818 0.0195923
321.527 -117.802 0.0195923
125.017 -169.945 0.195892
125.017 -169.945 0.195892
66.7689 -173.777 0.195892
66.7689 -173.777 0.195892
304.108 -121.583 0.0195923
304.431 -121.578 0.0195923
305.324 -121.563 0.0195923
305.516 -121.56 0.0195923
305.564 -121.56 0.0195923
305.776 -121.556 0.0195923
312.325 -121.45 0.0195923
312.686 -121.445 0.0195923
312.686 -121.445 0.0195923
319.654 -121.332 0.0195923
319.931 -121.328 0.0195923
320.056 -121.326 0.0195923
320.334 -121.321 0.0195923
320.544 -121.318 0.0195923
200.567 -255.83 0.0195923
200.422 -249.494 0.0195923
200.373 -247.375 0.0195923
200.179 -238.899 0.0195923
200.176 -238.79 0.0195923
258.696 -256.831 0.0195847
258.696 -256.843 0.0195847
246.873 -172.751 0.195892
212.549 -364.221 0
258.46 -180.457 0.0195847
258.46 -180.33 0.0195847
266.264 -172.641 0.195892
54.0813 -170.349 0.195892
54.0813 -170.349 0.195892
20.0609 -174.042 0.195892
315.265 -256.264 0.00434875
315.264 -256.087 0.00434875
304.45 -246.548 0.0043335
-515.25 240.957 0
-511.75 240.949 0
-508.25 240.94 0
-504.75 240.932 0
-493.23 177.652 0
-489.73 177.674 0
-486.23 177.696 0
-482.73 177.718 0
311.765 -256.295 0.00434875
311.765 -256.295 0.00434875
311.765 -256.295 0.00434875
263.341 -310.845 0.00434875
263.341 -310.845 0.00434875
-375.807 37.1378 0
-375.829 33.6378 0
-375.852 30.1379 0
-375.874 26.638 0
-365.83 37.0736 0
-365.852 33.5737 0
-365.875 30.0737 0
-365.897 26.5738 0
-365.62 37.0723 0
-365.643 33.5723 0
-365.665 30.0724 0
-365.688 26.5725 0
-365.168 37.0693 0
-365.19 33.5694 0
-365.213 30.0695 0
-365.235 26.5696 0
-365.043 37.0685 0
-365.066 33.5686 0
-365.088 30.0687 0
-365.111 26.5688 0
348.286 -164.051 0.0043335
410.948 -14.6715 0
311.561 -233.418 0.00434875
315.108 -238.68 0.00434875
315.108 -238.68 0.00434875
315.108 -238.681 0.00434875
341.31 -172.214 0.195892
341.431 -172.213 0.195892
351.795 -164.702 0.0043335
351.79 -164.365 0.0043335
351.789 -164.258 0.0043335
351.788 -164.235 0.0043335
351.788 -164.218 0.0043335
407.508 -15.321 0
311.088 -180.329 0.00434875
311.088 -180.329 0.00434875
311.088 -180.329 0.00434875
314.959 -221.916 0.00434875
250.82 -307.473 0.00434875
250.82 -307.473 0.00434875
211.348 -311.38 0.00434875
211.348 -311.38 0.00434875
211.348 -311.38 0.00434875
311.764 -256.118 0.00434875
311.763 -256.034 0.00434875
311.761 -255.858 0.00434875
311.761 -255.806 0.00434875
311.761 -255.779 0.00434875
304.386 -250.048 0.0043335
246.813 -246.151 0.0043335
254.716 -246.206 0.0043335
256.931 -246.221 0.0043335
265.844 -246.282 0.0043335
265.845 -246.282 0.0043335
314.418 -161.237 0.00434875
321.706 -168.825 0.195892
68.3167 16.8603 10.9843
68.331 13.3603 10.9843
68.3452 9.86031 10.9843
68.3594 6.36034 10.9843
68.3167 16.8603 10.9843
68.331 13.3603 10.9843
68.3452 9.86031 10.9843
68.3594 6.36034 10.9843
69.1517 16.8636 10.9812
69.1659 13.3637 10.9812
69.1802 9.8637 10.9812
69.1944 6.36373 10.9812
310.62 -127.875 0.00434875
310.62 -127.875 0.00434875
310.62 -127.875 0.00434875
314.417 -161.196 0.00434875
314.417 -161.196 0.00434875
314.417 -161.196 0.00434875
246.693 -249.65 0.0043335
246.789 -249.651 0.0043335
356.212 -168.629 0.195892
246.873 -172.751 0.195892
68.2315 37.8601 10.9843
68.2457 34.3601 10.9843
68.2599 30.8601 10.9843
68.2741 27.3602 10.9843
69.0665 37.8635 10.9812
69.0807 34.3635 10.9812
69.0949 30.8635 10.9812
69.1091 27.3636 10.9812
110.968 38.2071 10.4628
111.027 34.7076 10.4628
111.087 31.2081 10.4628
111.147 27.7086 10.4628
375.653 -65.1857 0.00434875
313.987 -112.941 0.00434875
313.987 -112.942 0.00434875
313.987 -112.942 0.00434875
200.57 -255.96 0.0195923
200.57 -255.96 0.0195923
200.57 -255.96 0.0195923
205.054 -298.784 0.0195923
205.054 -298.784 0.0195923
205.054 -298.784 0.0195923
133.191 -169.898 0.195892
127.681 -180.608 0.0386963
249.467 -118.964 0.0195923
249.467 -118.964 0.0195923
201.967 -164.244 0.0195923
201.967 -164.244 0.0195923
201.967 -164.244 0.0195923
-365.643 33.5723 0
-365.19 33.5694 0
-365.066 33.5686 0
341.411 -168.713 0.195892
350.111 -168.664 0.195892
355.528 -168.633 0.195892
355.868 -168.631 0.195892
356.113 -168.63 0.195892
356.147 -168.629 0.195892
356.153 -168.629 0.195892
356.212 -168.629 0.195892
380.906 -59.6745 0
334.012 -117.6 0.0195923
321.584 -121.301 0.0195923
321.584 -121.301 0.0195923
321.584 -121.301 0.0195923
131.182 -180.547 0.0386963
198.807 -179.125 0.0195923
198.807 -179.125 0.0195923
198.807 -179.125 0.0195923
203.675 -238.71 0.0195923
203.675 -238.71 0.0195923
203.675 -238.71 0.0195923
315.265 -256.264 0.00434875
322.508 -250.173 0.0043335
341.31 -172.214 0.195892
341.431 -172.213 0.195892
350.131 -172.164 0.195892
355.547 -172.133 0.195892
355.888 -172.131 0.195892
356.133 -172.13 0.195892
356.167 -172.129 0.195892
356.173 -172.129 0.195892
375.608 -68.6854 0.00434875
319.25 -222.842 0.00434494
304.052 -118.083 0.0195923
304.052 -118.083 0.0195923
304.052 -118.083 0.0195923
262.84 -122.249 0.0195923
262.84 -122.249 0.0195923
311.609 -238.712 0.00434875
311.609 -238.813 0.00434875
304.45 -246.548 0.0043335
-45.632 340.291 0
-48.388 338.134 0
-51.144 335.976 0
-53.9 333.819 0
246.873 -172.751 0.195892
246.964 -172.751 0.195892
255.846 -172.7 0.195892
256.691 -172.696 0.195892
266.264 -172.641 0.195892
58.6388 -179.975 0.0336609
54.3105 -173.847 0.195892
54.1013 -173.849 0.195892
-1.41511 306.845 0
-4.62251 305.445 0
-7.82991 304.044 0
-11.0373 302.643 0
246.945 -169.251 0.195892
255.826 -169.2 0.195892
256.671 -169.196 0.195892
266.244 -169.141 0.195892
266.283 -169.141 0.195892
351.785 -164.004 0.0043335
351.785 -164.004 0.0043335
351.785 -164.004 0.0043335
348 -142.853 0.0043335
322.585 -250.173 0.0043335
322.585 -250.173 0.0043335
322.585 -250.173 0.0043335
348.457 -176.817 0.0043335
348.457 -176.817 0.0043335
348.457 -176.817 0.0043335
133.191 -169.898 0.195892
129.104 -169.922 0.195892
404.084 25.9087 0
400.633 25.3265 0
304.386 -250.048 0.0043335
131.182 -180.547 0.0386963
265.821 -249.782 0.0043335
265.821 -249.782 0.0043335
265.821 -249.782 0.0043335
304.41 -246.548 0.0043335
304.41 -246.548 0.0043335
304.41 -246.548 0.0043335
129.124 -173.422 0.195892
125.037 -173.445 0.195892
-384.794 0.359857 0
-381.294 0.37131 0
-381.294 0.37131 0
-381.294 0.37131 0
-381.294 0.37131 0
311.609 -238.712 0.00434875
311.609 -238.813 0.00434875
322.082 -250.17 0.0043335
322.508 -250.173 0.0043335
58.6388 -179.975 0.0336609
65.9337 -170.281 0.195892
66.3365 -170.279 0.195892
66.7489 -170.277 0.195892
211.288 -311.38 0.00434875
211.102 -311.382 0.00434875
210.932 -311.384 0.00434875
210.525 -311.388 0.00434875
210.344 -311.39 0.00434875
194.715 -311.171 0.0336609
194.7 -311.171 0.0336609
314.12 -127.844 0.00434875
314.119 -127.733 0.00434875
314.047 -119.685 0.00434875
314.047 -119.685 0.00434875
313.998 -114.146 0.00434875
313.997 -114.11 0.00434875
313.996 -113.961 0.00434875
313.996 -113.946 0.00434875
313.995 -113.886 0.00434875
258.399 -160.667 0.0195847
258.399 -160.667 0.0195847
258.399 -160.667 0.0195847
254.802 -129.107 0.0195847
254.802 -129.107 0.0195847
258.639 -238.289 0.0195847
258.639 -238.289 0.0195847
258.639 -238.289 0.0195847
254.96 -180.468 0.0195847
254.96 -180.468 0.0195847
254.96 -180.468 0.0195847
351.954 -176.551 0.0043335
351.956 -176.706 0.0043335
351.957 -176.77 0.0043335
258.837 -302.595 0.0195847
258.837 -302.595 0.0195847
255.196 -256.854 0.0195847
255.196 -256.854 0.0195847
255.196 -256.853 0.0195847
127.681 -180.608 0.0386963
125.037 -173.445 0.195892
211.248 -249.406 0.0043335
211.248 -249.406 0.0043335
211.248 -249.406 0.0043335
246.716 -246.151 0.0043335
246.717 -246.151 0.0043335
246.716 -246.151 0.0043335
321.941 -246.669 0.0043335
322.106 -246.67 0.0043335
322.532 -246.673 0.0043335
322.609 -246.673 0.0043335
-25.1122 -245.745 0
25.6 122.853 0
1.35633 -298.274 0
-28.0157 -247.7 0
351.5 -142.806 0.0043335
334.068 -121.1 0.0195923
341.31 -172.214 0.195892
341.431 -172.213 0.195892
348.457 -176.753 0.0043335
-25.8448 -79.5103 0
107.358 -2.93451 10.7576
211.312 -307.88 0.00434875
211.252 -307.881 0.00434875
211.066 -307.883 0.00434875
210.896 -307.884 0.00434875
382.077 -177.692 0
385.577 -177.656 0
389.077 -177.619 0
392.577 -177.583 0
248.583 -385.23 0
248.565 -388.73 0
248.547 -392.23 0
248.529 -395.73 0
348.286 -164.051 0.0043335
348.288 -164.265 0.0043335
355.547 -172.133 0.195892
355.888 -172.131 0.195892
356.133 -172.13 0.195892
356.167 -172.129 0.195892
356.173 -172.129 0.195892
194.7 -311.171 0.0336609
194.715 -311.171 0.0336609
205.489 -317.737 0.0195923
205.479 -317.307 0.0195923
205.476 -317.174 0.0195923
205.473 -317.078 0.0195923
205.47 -316.934 0.0195923
205.466 -316.737 0.0195923
205.331 -310.857 0.0195923
205.331 -310.857 0.0195923
205.306 -309.776 0.0195923
205.056 -298.874 0.0195923
201.98 -317.387 0.0195923
201.977 -317.254 0.0195923
201.974 -317.159 0.0195923
201.971 -317.015 0.0195923
201.967 -316.817 0.0195923
201.832 -310.938 0.0195923
201.832 -310.938 0.0195923
201.807 -309.856 0.0195923
201.557 -298.954 0.0195923
201.555 -298.864 0.0195923
348.286 -164.051 0.0043335
348.288 -164.265 0.0043335
348.289 -164.282 0.0043335
348.289 -164.305 0.0043335
348.29 -164.413 0.0043335
348.295 -164.749 0.0043335
348.372 -170.437 0.0043335
348.452 -176.44 0.0043335
348.454 -176.537 0.0043335
348.454 -176.561 0.0043335
348.454 -176.598 0.0043335
348.457 -176.753 0.0043335
351.788 -164.218 0.0043335
351.788 -164.235 0.0043335
351.789 -164.258 0.0043335
351.79 -164.365 0.0043335
351.795 -164.702 0.0043335
351.871 -170.39 0.0043335
351.952 -176.393 0.0043335
351.953 -176.49 0.0043335
351.954 -176.514 0.0043335
351.954 -176.551 0.0043335
351.956 -176.706 0.0043335
351.957 -176.77 0.0043335
356.173 -172.129 0.195892
351.954 -176.514 0.0043335
351.954 -176.551 0.0043335
351.956 -176.706 0.0043335
351.957 -176.77 0.0043335
211.273 -245.907 0.0043335
211.27 -245.907 0.0043335
314.418 -161.237 0.00434875
303.247 -172.431 0.195892
258.46 -180.457 0.0195847
258.46 -180.33 0.0195847
258.431 -170.95 0.0195847
258.431 -170.94 0.0195847
258.431 -170.94 0.0195847
258.399 -160.667 0.0195847
212.628 -374.721 0
212.601 -371.221 0
212.575 -367.721 0
209.048 -374.748 0
209.022 -371.248 0
208.996 -367.748 0
200.803 -374.81 0
200.777 -371.31 0
200.751 -367.81 0
381.922 -162.811 0
375.681 -168.518 0.195892
192.731 -169.56 0.195892
192.925 -169.558 0.195892
192.933 -169.558 0.195892
193.643 -169.554 0.195892
193.924 -169.553 0.195892
198.468 -164.324 0.0195923
209.206 -395.747 0
209.18 -392.247 0
209.153 -388.747 0
209.127 -385.247 0
200.961 -395.809 0
200.935 -392.309 0
200.908 -388.809 0
200.882 -385.309 0
197.837 -395.832 0
197.811 -392.332 0
197.785 -388.833 0
197.759 -385.333 0
210.576 -169.458 0.195892
210.368 -169.459 0.195892
198.793 -178.5 0.0195923
198.795 -178.583 0.0195923
198.801 -178.871 0.0195923
198.802 -178.89 0.0195923
198.805 -179.035 0.0195923
250.856 -310.973 0.00434875
251.014 -310.971 0.00434875
251.287 -310.969 0.00434875
251.786 -310.964 0.00434875
253.876 -310.942 0.00434875
257.132 -310.909 0.00434875
262.86 -310.85 0.00434875
263.14 -310.847 0.00434875
263.171 -310.846 0.00434875
250.856 -310.973 0.00434875
251.014 -310.971 0.00434875
251.287 -310.969 0.00434875
258.838 -303.08 0.0195847
258.838 -302.861 0.0195847
413.456 -165.879 0
409.956 -165.915 0
406.456 -165.952 0
402.956 -165.988 0
413.54 -173.947 0
410.04 -173.983 0
406.54 -174.02 0
403.041 -174.057 0
413.576 -177.364 0
410.076 -177.4 0
406.576 -177.437 0
403.076 -177.473 0
332.174 -168.766 0.195892
332.174 -168.766 0.195892
335.21 -168.749 0.195892
255.338 -302.872 0.0195847
255.337 -302.606 0.0195847
330.991 -175.855 0.00434494
263.171 -310.846 0.00434875
263.14 -310.847 0.00434875
255.34 -303.503 0.0195847
255.339 -303.091 0.0195847
255.338 -302.872 0.0195847
255.337 -302.606 0.0195847
263.305 -307.345 0.00434875
-15.741 68.1764 0
-15.7396 68.4678 0
-24.9951 123.36 0
315.265 -256.264 0.00434875
315.264 -256.087 0.00434875
315.263 -256.003 0.00434875
315.261 -255.827 0.00434875
315.261 -255.775 0.00434875
315.261 -255.748 0.00434875
315.195 -248.345 0.00434875
315.109 -238.782 0.00434875
311.764 -256.118 0.00434875
311.763 -256.034 0.00434875
311.761 -255.858 0.00434875
311.761 -255.806 0.00434875
311.761 -255.779 0.00434875
311.695 -248.376 0.00434875
311.609 -238.813 0.00434875
311.609 -238.712 0.00434875
127.685 -180.697 0.0386963
127.685 -180.697 0.0386963
194.192 -245.192 0.0386963
194.192 -245.192 0.0386963
194.192 -245.192 0.0386963
315.061 -233.387 0.00434875
315.01 -227.651 0.00434875
314.588 -180.298 0.00434875
314.587 -180.255 0.00434875
314.501 -170.611 0.00434875
314.418 -161.238 0.00434875
15.2453 -49.2427 0
15.2434 -49.7401 0
24.6896 -80.398 0
311.087 -180.286 0.00434875
311.001 -170.642 0.00434875
310.918 -161.269 0.00434875
310.918 -161.228 0.00434875
204.069 -255.879 0.0195923
314.588 -180.298 0.00434875
314.587 -180.255 0.00434875
303.371 -168.93 0.195892
303.247 -172.431 0.195892
211.273 -245.907 0.0043335
211.27 -245.907 0.0043335
203.678 -238.818 0.0195923
314.588 -180.298 0.00434875
314.587 -180.255 0.00434875
321.711 -172.325 0.195892
200.176 -238.79 0.0195923
321.706 -168.825 0.195892
194.137 -248.692 0.0386963
194.094 -248.69 0.0386963
310.918 -161.228 0.00434875
303.371 -168.93 0.195892
258.46 -180.457 0.0195847
258.46 -180.33 0.0195847
246.945 -169.251 0.195892
246.693 -249.65 0.0043335
246.789 -249.651 0.0043335
254.692 -249.706 0.0043335
256.907 -249.721 0.0043335
265.82 -249.782 0.0043335
310.918 -161.228 0.00434875
321.711 -172.325 0.195892
266.283 -169.141 0.195892
265.845 -246.282 0.0043335
303.247 -172.431 0.195892
303.391 -172.43 0.195892
312.761 -172.376 0.195892
321.711 -172.325 0.195892
265.82 -249.782 0.0043335
258.696 -256.831 0.0195847
258.696 -256.843 0.0195847
303.371 -168.93 0.195892
312.741 -168.876 0.195892
321.691 -168.826 0.195892
321.706 -168.825 0.195892
310.619 -127.764 0.00434875
310.547 -119.717 0.00434875
310.547 -119.717 0.00434875
310.498 -114.177 0.00434875
310.498 -114.141 0.00434875
310.496 -113.992 0.00434875
310.496 -113.977 0.00434875
310.496 -113.917 0.00434875
310.487 -112.973 0.00434875
211.312 -307.88 0.00434875
211.252 -307.881 0.00434875
211.066 -307.883 0.00434875
201.971 -317.015 0.0195923
201.974 -317.159 0.0195923
201.977 -317.254 0.0195923
201.98 -317.387 0.0195923
314.12 -127.844 0.00434875
314.119 -127.733 0.00434875
305.46 -118.061 0.0195923
305.267 -118.064 0.0195923
304.375 -118.078 0.0195923
314.12 -127.844 0.00434875
314.119 -127.733 0.00434875
320.057 -121.326 0.0195923
320.334 -121.321 0.0195923
320.544 -121.318 0.0195923
313.995 -113.886 0.00434875
313.996 -113.945 0.00434875
305.324 -121.563 0.0195923
304.431 -121.578 0.0195923
304.108 -121.583 0.0195923
310.487 -112.973 0.00434875
310.496 -113.917 0.00434875
320.334 -121.321 0.0195923
320.544 -121.318 0.0195923
319.598 -117.833 0.0195923
319.874 -117.828 0.0195923
320 -117.826 0.0195923
320.277 -117.822 0.0195923
320.488 -117.818 0.0195923
321.527 -117.802 0.0195923
4.61154 -83.3066 0
8.11152 -83.3204 0
11.6115 -83.3341 0
15.1115 -83.3478 0
4.74345 -49.6975 0
8.24342 -49.7112 0
11.7434 -49.725 0
15.2434 -49.7387 0
4.74539 -49.2015 0
8.24537 -49.2153 0
11.7453 -49.229 0
15.2453 -49.2427 0
-16.2544 -49.1191 0
-16.2544 -49.1191 0
254.96 -180.341 0.0195847
254.931 -170.961 0.0195847
254.931 -170.951 0.0195847
254.931 -170.951 0.0195847
254.899 -160.678 0.0195847
254.899 -160.678 0.0195847
202.941 -359.273 0.0195923
254.899 -160.678 0.0195847
254.899 -160.678 0.0195847
246.945 -169.251 0.195892
210.576 -169.458 0.195892
210.368 -169.459 0.195892
201.979 -164.802 0.0195923
201.97 -164.383 0.0195923
201.969 -164.343 0.0195923
392.421 -162.701 0
388.922 -162.738 0
385.422 -162.774 0
392.457 -166.098 0
388.957 -166.135 0
385.457 -166.171 0
392.541 -174.166 0
389.041 -174.203 0
385.542 -174.239 0
