ply
format ascii 1.0
comment VCGLIB generated
element vertex 101
property float x
property float y
property float z
element face 0
property list uchar int vertex_indices
end_header
-7.53 142.19 0.3
-7.53 270.73 0.3
-3.68001 234.11 0.3
-7.53 234.11 0.3
-3.68 121.21 0.3
-7.53 121.21 0.3
193.78 266.43 0.3
189.93 252.33 0.3
193.78 293.54 0.3
189.93 293.54 0.3
193.78 218.79 0.3
189.93 208.11 0.3
193.78 171.29 0.3
-7.53 251.36 0.3
189.93 160.58 0.3
193.78 142.19 0.3
189.93 142.19 0.3
193.78 121.21 0.3
189.93 121.21 0.3
131.69 105.55 0.3
131.69 109.4 0.3
173.87 105.55 0.3
173.87 109.4 0.3
84.41 105.55 0.3
-3.68 288.22 0.3
84.41 109.3 0.3
55.41 105.55 0.3
55.41 109.4 0.3
25.53 105.55 0.3
21.42 109.4 0.3
1.54002 105.55 0.3
1.54 109.4 0.3
136.11 302.57 0.3
136.11 306.42 0.3
178.29 302.57 0.3
-7.53 288.22 0.3
178.29 306.42 0.3
88.83 302.57 0.3
88.83 306.42 0.3
71.53 302.57 0.3
59.6 306.42 0.3
26.94 302.57 0.3
14.01 306.42 0.3
9.53002 302.57 0.3
118.77 237.43 0.3
-3.68 219.41 0.3
104.3 241.28 0.3
174.33 237.43 0.3
162.76 241.28 0.3
88.71 237.43 0.3
88.71 241.28 0.3
71.04 237.43 0.3
59.71 241.28 0.3
162.92 237.43 0.3
151.3 241.28 0.3
117.93 187.92 0.3
-7.53 208.92 0.3
104.59 191.77 0.3
181.8 187.92 0.3
166.915 191.77 0.3
92.34 187.92 0.3
92.34 191.77 0.3
75.43 187.92 0.3
63.34 191.77 0.3
27.72 187.92 0.3
18.25 191.77 0.3
16.2337 187.92 0.3
-3.68 172.43 0.3
9.47 191.77 0.3
165.09 187.12 0.3
150.24 191.77 0.3
45.59 271.51 0.3
41.39 257.46 0.3
45.24 291.29 0.3
41.39 275.03 0.3
45.89 216.26 0.3
41.39 203.9 0.3
45.24 225.59 0.3
-7.53 158.98 0.3
41.39 212.98 0.3
135.88 215.27 0.3
132.03 201.17 0.3
135.88 226.05 0.3
132.03 211 0.3
75.43 191.77 0.3
104.6 187.92 0.3
-3.67995 158.98 0.3
37.47 105.55 0.3
193.78 160.58 0.3
-3.68 142.19 0.3
104.3 237.43 0.3
70.88 241.28 0.3
71.53 306.42 0.3
111.08 302.57 0.3
111.08 306.42 0.3
189.93 266.43 0.3
151.403 105.55 0.3
151.75 109.4 0.3
-7.53 219.41 0.3
-3.68 270.73 0.3
-3.68 251.36 0.3
