ply
format ascii 1.0
comment VCGLIB generated
element vertex 324
property float x
property float y
property float z
element face 0
property list uchar int vertex_indices
end_header
141.076 191.617 0
140.659 191.617 0
136.152 197.696 0
136.151 198.042 0
126.799 187.61 0
126.833 187.61 0
136.152 197.624 0
136.152 197.692 0
136.152 197.696 0
136.151 198.042 0
126.799 187.61 0
126.833 187.61 0
130.105 187.612 0
134.14 187.614 0
138.12 187.616 0
140.661 187.617 0
141.078 187.617 0
141.078 187.617 0
3.02477 187.554 0
3.13735 187.554 0
3.40102 187.554 0
51.8276 302.531 0
45.8594 297.526 0
45.8594 297.781 0
45.8595 298.433 0
36.8794 306.538 0
36.8227 306.538 0
36.7377 306.538 0
36.3124 306.538 0
126.762 191.61 0
126.797 191.61 0
126.831 191.61 0
130.104 191.612 0
134.139 191.614 0
138.118 191.616 0
140.659 191.617 0
141.076 191.617 0
41.8594 297.214 0
41.8594 297.526 0
36.735 302.538 0
183.711 187.636 0
189.685 183.376 0
189.685 182.617 0
189.685 182.343 0
193.688 197.365 0
193.688 197.182 0
193.688 197.03 0
193.688 196.909 0
193.686 189.884 0
193.685 184.074 0
193.685 183.375 0
193.685 182.616 0
41.8507 198.074 0
41.8507 198.074 0
41.8507 197.7 0
50.8999 187.576 0
51.0357 187.576 0
36.3124 306.538 0
36.7377 306.538 0
36.8227 306.538 0
36.8794 306.538 0
43.7037 306.533 0
50.947 306.531 0
51.2589 306.531 0
51.5996 306.531 0
45.8508 198.582 0
45.8507 198.073 0
50.5588 191.575 0
50.8642 191.576 0
50.898 191.576 0
141.078 187.617 0
141.078 187.617 0
36.3098 191.569 0
36.4118 191.569 0
36.5477 191.569 0
36.5812 191.569 0
44.1305 191.572 0
50.5588 191.575 0
50.8642 191.576 0
50.898 191.576 0
36.4136 187.569 0
36.5495 187.569 0
36.583 187.569 0
44.1324 187.572 0
50.5607 187.575 0
50.8661 187.576 0
50.8999 187.576 0
51.0357 187.576 0
41.8594 297.214 0
41.8594 297.526 0
41.8594 297.781 0
51.2589 306.531 0
51.5996 306.531 0
36.4136 187.569 0
45.8507 198.073 0
45.8507 198.073 0
45.8508 198.582 0
126.762 191.61 0
126.797 191.61 0
132.152 197.688 0
132.152 197.692 0
36.3098 191.569 0
136.117 231.824 0
136.117 231.915 0
126.108 240.92 0
125.805 240.92 0
125.743 240.92 0
193.685 182.342 0
189.74 118.067 0
189.74 118.067 0
193.696 231.495 0
193.696 231.495 0
189.688 197.365 0
189.688 197.365 0
-3.45183 198.232 0
-3.45192 197.818 0
-3.45196 197.667 0
3.13552 191.554 0
193.67 294.581 0
193.67 294.581 0
189.699 247.35 0
125.745 236.92 0
125.745 236.92 0
51.9766 240.875 0
51.9766 240.875 0
183.433 236.955 0
183.433 236.955 0
141.821 240.93 0
141.821 240.93 0
136.117 231.672 0
136.117 231.672 0
132.151 198.038 0
132.151 198.038 0
193.699 247.35 0
193.699 247.116 0
193.699 246.882 0
193.699 246.749 0
193.697 239 0
193.696 232.63 0
193.696 232.596 0
193.696 231.962 0
45.8536 231.312 0
45.8536 231.312 0
41.8508 198.582 0
41.8508 198.582 0
132.117 231.668 0
189.699 247.117 0
189.699 246.883 0
189.699 246.75 0
189.697 239.001 0
189.696 232.63 0
189.696 232.597 0
189.696 231.963 0
189.696 231.496 0
193.688 197.365 0
193.688 197.182 0
193.688 197.03 0
193.688 196.909 0
45.8594 297.214 0
45.8594 297.214 0
41.855 247.122 0
41.855 247.122 0
141.076 191.617 0
141.076 191.617 0
183.589 187.636 0
183.589 187.636 0
-3.45542 182.322 0
-7.35999 117.556 0
-7.35999 117.556 0
45.855 247.122 0
45.855 246.781 0
45.855 246.554 0
51.7486 240.875 0
51.9023 240.875 0
-7.45192 197.819 0
-7.45196 197.668 0
-7.45196 197.63 0
-7.45368 190.016 0
-7.45527 183.002 0
-7.45535 182.625 0
-7.45536 182.588 0
-7.45542 182.323 0
4.61864 302.56 0
-7.37 294.703 0
-3.45183 198.232 0
-3.45192 197.818 0
-3.45196 197.667 0
-3.45196 197.629 0
-3.45368 190.015 0
-3.45527 183.001 0
-3.45535 182.624 0
-3.45536 182.587 0
189.688 197.183 0
184.165 191.637 0
183.709 191.636 0
183.587 191.636 0
181.501 109.42 0
193.74 118.072 0
41.8536 231.312 0
41.8537 231.577 0
41.8537 232.069 0
41.8539 234.87 0
47.6995 240.873 0
51.7486 240.875 0
51.9023 240.875 0
3.39918 191.554 0
3.39918 191.554 0
36.3116 187.569 0
36.3116 187.569 0
51.0339 191.576 0
51.0339 191.576 0
126.764 187.61 0
126.764 187.61 0
-3.37 294.697 0
-3.37 294.697 0
-7.45183 198.233 0
45.8537 231.577 0
45.8537 232.069 0
51.9048 236.875 0
51.979 236.875 0
-3.36 117.564 0
4.79233 105.55 0
3.40102 187.554 0
189.67 294.579 0
180.823 306.5 0
181.499 105.42 0
4.80722 109.55 0
141.61 240.93 0
141.519 240.929 0
132.117 231.943 0
132.117 231.911 0
132.117 231.82 0
132.117 231.668 0
51.8263 306.531 0
180.817 302.5 0
180.817 302.5 0
189.688 197.183 0
189.688 197.031 0
189.688 196.91 0
189.686 189.885 0
189.685 184.075 0
189.685 183.376 0
189.685 182.617 0
189.685 182.343 0
183.667 236.955 0
193.699 246.749 0
193.699 246.882 0
193.699 247.116 0
193.699 247.35 0
183.587 191.636 0
183.709 191.636 0
184.165 191.637 0
184.469 191.637 0
193.685 184.074 0
193.685 183.375 0
193.685 182.616 0
183.43 240.955 0
183.664 240.955 0
183.733 240.955 0
183.43 240.955 0
193.696 232.596 0
193.696 231.962 0
41.855 246.781 0
41.855 246.554 0
41.8549 246.365 0
41.8543 238.629 0
41.8539 234.87 0
41.8537 232.069 0
41.8537 231.577 0
41.8536 231.312 0
141.823 236.93 0
141.613 236.93 0
141.522 236.929 0
141.462 236.929 0
134.05 236.925 0
126.261 236.92 0
126.111 236.92 0
125.808 236.92 0
183.667 236.955 0
183.736 236.955 0
183.802 236.955 0
189.696 231.963 0
189.696 231.496 0
45.855 247.122 0
45.855 246.781 0
45.855 246.554 0
45.8549 246.365 0
45.8543 238.628 0
45.8539 234.87 0
45.8537 232.069 0
45.8537 231.577 0
36.735 302.538 0
36.82 302.538 0
36.8767 302.538 0
43.7009 302.533 0
50.9484 302.531 0
51.2603 302.531 0
51.6009 302.531 0
51.8276 302.531 0
41.855 246.781 0
41.855 246.554 0
41.8549 246.365 0
51.979 236.875 0
-7.45542 182.323 0
-7.45536 182.588 0
-7.45535 182.625 0
-7.45527 183.002 0
2.94784 191.554 0
3.02294 191.554 0
3.13552 191.554 0
4.62136 306.56 0
4.62136 306.56 0
36.3097 302.538 0
141.823 236.93 0
141.613 236.93 0
136.117 231.824 0
141.61 240.93 0
141.519 240.929 0
141.46 240.929 0
134.048 240.925 0
126.258 240.92 0
126.108 240.92 0
125.805 240.92 0
125.743 240.92 0
