ply
format ascii 1.0
comment VCGLIB generated
element vertex 302
property float x
property float y
property float z
element face 0
property list uchar int vertex_indices
end_header
-162.532 -95.1386 0.3
-44.211 -41.7106 0.3
-54.7109 -41.6501 0.3
-51.2109 -41.6708 0.3
-162.537 -91.6386 0.3
-95.2409 -88.0375 0.3
-127.747 53.4147 0.3
-95.2461 -84.5375 0.3
35.0572 161.957 0.3
31.5572 161.955 0.3
-127.151 120.222 0.3
-47.8174 -59.7596 0.3
-44.3175 -59.7803 0.3
-54.8173 -59.7198 0.3
-51.3174 -59.7404 0.3
-184.579 -29.3715 0.3
-188.079 -29.3702 0.3
-191.579 -29.3987 0.3
28.0712 54.348 0.3
-131.247 53.4459 0.3
24.5712 54.3466 0.3
-17.5879 -4.41376 0.3
-17.5793 -0.883773 0.3
28.0527 121.198 0.3
24.5527 121.197 0.3
-8.72118 95.5567 0.3
-8.7466 92.0568 0.3
-130.651 120.253 0.3
-195.079 -29.3987 0.3
-184.586 -53.5415 0.3
-188.086 -53.5402 0.3
-191.586 -53.5687 0.3
-195.086 -53.5687 0.3
-184.561 36.2285 0.3
-188.061 36.2298 0.3
-191.561 36.2013 0.3
-195.061 36.2012 0.3
-184.556 55.2885 0.3
-188.056 55.2898 0.3
-191.556 55.2613 0.3
-195.056 55.2612 0.3
-54.1959 55.4448 0.3
-50.696 55.4679 0.3
-47.1961 55.4911 0.3
-43.6962 55.5143 0.3
28.0474 161.946 0.3
24.5474 161.944 0.3
35.0636 121.195 0.3
58.1826 187.857 0.3
58.1464 194.857 0.3
58.164 191.357 0.3
-17.6024 2.59217 0.3
-17.5939 6.09216 0.3
-131.776 -60.014 0.3
-128.276 -59.99 0.3
-124.777 -59.8309 0.3
-121.277 -59.8069 0.3
-159.71 2.93807 0.3
-159.701 6.43806 0.3
-159.702 -4.06196 0.3
-159.694 -0.56197 0.3
-220.049 -3.91507 0.3
-220.04 -0.415084 0.3
-81.4111 -4.25252 0.3
-81.4026 -0.752534 0.3
-81.4025 2.74746 0.3
-81.394 6.24745 0.3
-88.9665 94.9649 0.3
-88.9625 91.4649 0.3
-88.9773 87.9649 0.3
-88.9733 84.4649 0.3
-78.5509 -88.0124 0.3
-78.5561 -84.5124 0.3
-78.5766 -95.0124 0.3
-78.5819 -91.5124 0.3
27.3685 -128.487 0.3
30.8697 -128.484 0.3
27.0421 -116.282 0.3
30.543 -116.268 0.3
34.0415 -116.165 0.3
37.5429 -116.171 0.3
34.3717 -128.51 0.3
37.8729 -128.507 0.3
0.562071 -4.45794 0.3
0.570616 -0.947952 0.3
0.547553 2.54799 0.3
0.556072 6.04798 0.3
-18.7884 -87.9221 0.3
-18.7937 -84.4221 0.3
-18.7833 -91.4221 0.3
-18.778 -94.922 0.3
1.04153 -87.8923 0.3
1.03626 -84.3923 0.3
1.0467 -91.3922 0.3
1.05197 -94.8922 0.3
-159.062 87.8847 0.3
-159.058 84.3847 0.3
-159.077 94.8847 0.3
-159.072 91.3847 0.3
31.5636 121.194 0.3
-97.0012 -4.21458 0.3
-96.9926 -0.714586 0.3
-96.9925 2.78541 0.3
-96.984 6.28539 0.3
-131.896 -42.5744 0.3
-128.396 -42.5504 0.3
-162.532 -88.1386 0.3
-162.537 -84.6386 0.3
-95.2666 -95.0375 0.3
-95.2719 -91.5375 0.3
24.7419 -52.3341 0.3
28.2406 -52.2405 0.3
-120.746 53.5798 0.3
-124.245 53.6111 0.3
-124.897 -42.3913 0.3
-121.397 -42.3673 0.3
31.7394 -52.147 0.3
35.2381 -52.0534 0.3
35.0993 54.5896 0.3
31.6 54.5882 0.3
-8.24059 87.994 0.3
-8.23659 84.494 0.3
-120.149 120.387 0.3
-123.649 120.418 0.3
-47.711 -41.69 0.3
-112.2 -88.0628 0.3
-112.205 -84.5628 0.3
-177.55 2.98149 0.3
-177.541 6.48148 0.3
-201.949 -3.95914 0.3
-201.94 -0.45915 0.3
-191.567 14.3513 0.3
-184.574 -11.5915 0.3
-195.067 14.3513 0.3
-188.074 -11.5902 0.3
-112.302 2.82268 0.3
-112.294 6.32267 0.3
-140.382 -4.109 0.3
-140.374 -0.609006 0.3
-128.109 13.7882 0.3
-121.555 -11.9481 0.3
-131.608 13.8386 0.3
-125.055 -11.9222 0.3
35.0572 137.335 0.3
210.739 -11.2722 0.3
31.5572 137.334 0.3
-124.047 75.8724 0.3
-62.8784 -94.9885 0.3
-48.1736 -102.923 0.3
-120.547 75.8411 0.3
-37.6984 -87.9506 0.3
-44.6835 -103.186 0.3
40.1726 144.898 0.3
-54.9204 -77.2237 0.3
-51.4205 -77.2443 0.3
207.24 -11.2313 0.3
-127.303 103.231 0.3
-62.8841 -91.4885 0.3
-37.7037 -84.4506 0.3
22.263 187.676 0.3
22.2269 194.676 0.3
22.2445 191.176 0.3
203.74 -11.1904 0.3
37.3378 201.752 0.3
-109.687 94.9412 0.3
-109.682 91.4412 0.3
19.2067 -91.3649 0.3
25.9879 -76.8685 0.3
19.2119 -94.8649 0.3
197.04 13.6991 0.3
43.4763 -84.0951 0.3
43.3881 -87.594 0.3
29.4867 -76.7745 0.3
17.8556 -0.994145 0.3
24.5821 12.4454 0.3
31.3994 -12.3387 0.3
17.8471 -4.49413 0.3
41.0567 1.74268 0.3
41.0414 5.24264 0.3
193.541 13.6585 0.3
28.082 12.4142 0.3
34.8993 -12.3266 0.3
-135.959 -142.394 0.3
-135.932 -145.894 0.3
-116.008 -135.239 0.3
-115.981 -138.739 0.3
-131.313 -127.45 0.3
-127.813 -127.426 0.3
-219.989 6.67869 0.3
190.041 13.6179 0.3
-219.997 3.1787 0.3
42.3664 -193.633 0.3
42.3812 -190.133 0.3
42.396 -186.633 0.3
26.4197 -207.565 0.3
26.4345 -204.065 0.3
26.4493 -200.565 0.3
32.1765 -177.343 0.3
28.6778 -177.437 0.3
-37.0423 2.63949 0.3
-37.0338 6.13948 0.3
-61.5712 -4.30083 0.3
-61.5627 -0.800837 0.3
-44.0315 -11.2618 0.3
-50.6023 13.2673 0.3
-47.5314 -11.2383 0.3
-54.1017 13.334 0.3
-115.223 151.171 0.3
-115.239 154.671 0.3
-135.219 144.077 0.3
-135.235 147.577 0.3
-120.005 136.572 0.3
-123.505 136.603 0.3
28.0712 102.152 0.3
41.8287 95.5567 0.3
17.8074 88.0871 0.3
24.5712 102.151 0.3
-141.602 -95.1071 0.3
33.7268 -104.399 0.3
35.0817 76.1185 0.3
31.5817 76.1171 0.3
17.8114 84.5871 0.3
41.8032 92.0568 0.3
35.0339 -153.27 0.3
38.5326 -153.177 0.3
27.7196 -141.613 0.3
31.2183 -141.519 0.3
44.2734 -145.965 0.3
28.0527 148.536 0.3
37.2255 -104.305 0.3
24.5527 148.534 0.3
-130.803 103.262 0.3
-141.632 87.9046 0.3
-141.628 84.4046 0.3
37.3022 208.752 0.3
37.3197 205.252 0.3
31.5403 179.66 0.3
35.0403 179.661 0.3
24.7419 -30.2804 0.3
28.2406 -30.1868 0.3
-47.6 -22.8503 0.3
-44.1001 -22.8709 0.3
-54.0599 34.8952 0.3
-50.56 34.9184 0.3
-265.49 19.5968 0.3
-268.99 19.6325 0.3
-141.607 -91.6071 0.3
31.7394 -30.0932 0.3
35.2381 -29.9996 0.3
24.6 30.1979 0.3
28.1 30.1993 0.3
35.0993 30.2021 0.3
31.6 30.2007 0.3
-132.01 -25.9661 0.3
69.3416 -207.747 0.3
69.3564 -204.247 0.3
69.3713 -200.747 0.3
196.74 -11.1087 0.3
193.241 -11.0678 0.3
189.741 -11.0269 0.3
-128.51 -25.942 0.3
69.4009 -193.747 0.3
69.4158 -190.247 0.3
69.4306 -186.747 0.3
7.05684 -207.483 0.3
7.07167 -203.983 0.3
7.08651 -200.483 0.3
7.11619 -193.483 0.3
7.13103 -189.983 0.3
7.14587 -186.483 0.3
211.039 13.8626 0.3
-275.63 -21.2085 0.3
207.54 13.822 0.3
204.04 13.7814 0.3
-47.06 34.9416 0.3
-43.5601 34.9648 0.3
-54.5999 -22.8105 0.3
-51.1 -22.8311 0.3
-125.01 -25.918 0.3
-121.51 -25.8939 0.3
-131.48 27.3869 0.3
-127.98 27.3556 0.3
-272.13 -21.183 0.3
-120.98 27.2931 0.3
-124.48 27.3244 0.3
-124.484 -102.441 0.3
-120.984 -102.417 0.3
-131.66 -76.9112 0.3
-128.16 -76.8872 0.3
-51.0061 102.302 0.3
-36.2622 95.0252 0.3
-54.506 102.278 0.3
-63.5473 87.994 0.3
-268.63 -21.1573 0.3
-43.8369 76.7808 0.3
-47.3369 76.7576 0.3
-36.2582 91.5252 0.3
-63.5433 84.494 0.3
155.015 -5.70153 0.3
143.922 -1.96232 0.3
151.525 5.31923 0.3
-265.13 -21.1318 0.3
