ply
format ascii 1.0
comment VCGLIB generated
element vertex 1776
property float x
property float y
property float z
element face 0
property list uchar int vertex_indices
end_header
37.4084 187.752 0
35.0403 179.719 1.52588e-05
35.0403 179.7 1.52588e-05
35.0403 179.68 1.52588e-05
29.7997 194.714 0
29.8172 191.214 0
29.8348 187.714 0
37.3725 194.752 0
37.3901 191.252 0
37.4076 187.752 0
-141.64 94.9046 0
-141.636 91.4046 0
-141.639 94.9046 0
-141.635 91.4046 0
-141.638 94.9046 0
-141.634 91.4046 0
-141.637 94.9046 0
-141.633 91.4046 0
-125.68 94.9229 0
-125.676 91.4229 0
-109.736 94.9411 0
-109.732 91.4411 0
-109.719 94.9412 0
-109.715 91.4412 0
-109.703 94.9412 0
-109.699 91.4412 0
-120.546 75.8897 0
-120.546 75.9383 0
-120.546 75.9869 0
-109.674 84.4412 0
-127.547 75.9036 0
-127.546 75.9522 0
-109.715 91.4412 0
-109.699 91.4412 0
-124.046 75.921 0
-124.046 75.9696 0
-141.634 91.4046 0
-141.635 91.4046 0
-141.636 91.4046 0
-123.803 103.2 0
-123.803 103.194 0
-141.631 87.9046 0
-130.803 103.256 0
-130.803 103.25 0
-130.803 103.244 0
-141.637 94.9046 0
-141.638 94.9046 0
-141.639 94.9046 0
-141.64 94.9046 0
-120.303 103.168 0
-123.803 103.2 0
-120.303 103.162 0
-123.803 103.194 0
-120.303 103.156 0
-123.803 103.188 0
-120.303 103.15 0
-123.803 103.181 0
-120.424 89.626 0
-123.924 89.6573 0
-120.546 75.9869 0
-124.045 76.0181 0
-120.546 75.9383 0
-124.046 75.9696 0
-120.546 75.8897 0
-124.046 75.921 0
-127.303 103.225 0
-130.803 103.256 0
-127.303 103.219 0
-130.803 103.25 0
-127.303 103.213 0
-130.803 103.244 0
-127.424 89.6885 0
-130.923 89.7197 0
-127.545 76.0494 0
-131.045 76.0806 0
-127.546 76.0008 0
-131.046 76.032 0
-127.546 75.9522 0
-131.046 75.9834 0
-127.547 75.9036 0
-131.046 75.9348 0
40.3096 141.401 0.0386047
40.1396 141.394 0.0386047
35.0527 148.538 1.52588e-05
44.1932 -149.464 0.0386047
28.0364 -153.458 1.52588e-05
31.5351 -153.364 1.52588e-05
27.8795 -147.593 1.52588e-05
31.3783 -147.499 1.52588e-05
27.8792 -147.58 1.52588e-05
31.3779 -147.486 1.52588e-05
27.878 -147.535 1.52588e-05
31.3767 -147.442 1.52588e-05
24.5817 76.1143 1.52588e-05
17.8034 91.5871 0
17.8035 91.5871 0
17.8036 91.5871 0
31.5816 76.2711 1.52588e-05
31.5816 76.1941 1.52588e-05
41.7786 92.057 0
41.754 92.0571 0
28.0816 76.1927 1.52588e-05
28.0817 76.1157 1.52588e-05
41.7524 85.057 0
35.0816 76.3495 1.52588e-05
35.0816 76.2725 1.52588e-05
35.0816 76.1955 1.52588e-05
41.804 95.5569 0
41.7794 95.557 0
41.7548 95.5572 0
17.7998 95.0871 0
17.7996 95.0871 0
17.7995 95.0871 0
17.7994 95.0871 0
41.7786 92.057 0
41.754 92.0571 0
17.8036 91.5871 0
17.8035 91.5871 0
17.8034 91.5871 0
41.7524 85.057 0
28.0713 102.116 1.52588e-05
24.5713 102.115 1.52588e-05
28.0713 102.08 1.52588e-05
24.5713 102.079 1.52588e-05
28.0713 102.044 1.52588e-05
24.5713 102.043 1.52588e-05
28.0761 90.1001 1.52588e-05
24.5761 90.0987 1.52588e-05
28.0761 90.1001 1.52588e-05
24.5761 90.0987 1.52588e-05
28.0761 90.1001 1.52588e-05
24.5761 90.0987 1.52588e-05
28.0762 89.847 1.52588e-05
24.5762 89.8456 1.52588e-05
28.0816 76.3467 1.52588e-05
24.5816 76.3453 1.52588e-05
28.0816 76.2697 1.52588e-05
24.5816 76.2683 1.52588e-05
28.0816 76.1927 1.52588e-05
24.5816 76.1913 1.52588e-05
28.0817 76.1157 1.52588e-05
24.5817 76.1143 1.52588e-05
24.5713 102.115 1.52588e-05
24.5713 102.079 1.52588e-05
24.5713 102.043 1.52588e-05
17.7998 95.0871 0
17.7996 95.0871 0
17.7995 95.0871 0
17.7994 95.0871 0
31.5713 102.153 1.52588e-05
31.5713 102.117 1.52588e-05
17.8075 88.0871 0
-130.504 136.71 0
-130.504 136.695 0
-130.504 136.68 0
-130.504 136.665 0
-135.252 151.077 0.0554504
-123.505 136.618 0
-54.531 -11.1467 0.0554504
-54.5311 -11.1611 0.0554504
-54.5312 -11.1758 0.0554504
-54.5313 -11.1906 0.0554504
-61.5542 2.69915 0
-61.5489 2.69914 0
-61.5436 2.69913 0
-47.5313 -11.2237 0.0554504
-43.6036 13.1339 0.0554504
-37.0509 -0.8605 0
-37.0764 -0.860438 0
-37.1019 -0.860376 0
-50.6029 13.2376 0.0554504
-50.6026 13.2525 0.0554504
-37.0679 2.63955 0
-51.0311 -11.1852 0.0554504
-51.0312 -11.1997 0.0554504
-51.0313 -11.2145 0.0554504
-37.0594 -4.36049 0
-37.0849 -4.36043 0
-37.1104 -4.36036 0
-37.1359 -4.3603 0
-37.0679 2.63955 0
-37.0593 6.13954 0
-37.0934 2.63961 0
-37.0849 6.1396 0
-37.1189 2.63968 0
-37.1104 6.13967 0
-49.0805 2.66879 0
-49.0719 6.16878 0
-61.5383 2.69911 0
-61.5298 6.1991 0
-61.5436 2.69913 0
-61.5351 6.19912 0
-61.5489 2.69914 0
-61.5404 6.19913 0
-61.5542 2.69915 0
-61.5456 6.19914 0
26.5084 -186.565 0
42.3364 -200.632 0
32.1786 -177.422 1.52588e-05
34.4219 -193.599 0
34.4368 -190.099 0
34.4516 -186.599 0
34.4217 -193.599 0
34.4366 -190.099 0
34.4514 -186.599 0
26.479 -193.565 0
26.4939 -190.065 0
26.5087 -186.565 0
-258.589 -3.82128 0
-258.591 3.17875 0
-258.611 3.1788 0
-272.295 -6.23702 0
22.1925 201.676 0
31.5403 179.699 1.52588e-05
31.5403 179.679 1.52588e-05
-265.538 9.02775 0
-269.038 9.00905 0
-265.441 1.49793 0
-268.941 1.43111 0
24.5403 179.657 1.52588e-05
-272.44 1.36429 0
-275.939 1.29747 0
-272.295 -6.23702 0
-275.794 -6.30384 0
-265.538 9.02776 0
-258.623 6.67884 0
-258.603 6.67879 0
-258.583 6.67874 0
-258.6 -0.321238 0
-258.58 -0.321286 0
-115.953 -142.239 0.0554504
-127.812 -127.482 -1.52588e-05
-127.813 -127.454 -1.52588e-05
-120.813 -127.378 -1.52588e-05
-136.012 -135.394 0.0554504
-131.312 -127.535 -1.52588e-05
-131.312 -127.506 -1.52588e-05
-131.313 -127.478 -1.52588e-05
-136.013 -135.394 0.0554504
-135.986 -138.894 0.0554504
-126.01 -135.317 0.0554504
-125.983 -138.817 0.0554504
-125.956 -142.316 0.0554504
-125.929 -145.816 0.0554504
-115.954 -142.239 0.0554504
-115.927 -145.739 0.0554504
28.0817 12.3783 1.52588e-05
28.0814 12.3425 1.52588e-05
41.0371 -1.75744 0
41.072 -1.75729 0
17.8641 2.50584 0
17.8759 2.50582 0
40.9869 1.74237 0
41.0218 1.74253 0
17.8673 -0.994173 0
17.8791 -0.994202 0
41.0371 -1.75744 0
41.072 -1.75729 0
17.8588 -4.49416 0
17.8706 -4.49419 0
17.8823 -4.49422 0
41.0872 -5.25726 0
17.8588 -4.49416 0
17.8706 -4.49419 0
17.8823 -4.49422 0
24.399 -12.2276 1.52588e-05
24.3991 -12.2721 1.52588e-05
24.3992 -12.3172 1.52588e-05
24.3995 -12.363 1.52588e-05
17.8641 2.50584 0
17.8759 2.50582 0
31.3992 -12.2936 1.52588e-05
35.0527 148.538 1.52588e-05
31.5527 148.537 1.52588e-05
35.0549 142.975 1.52588e-05
31.5549 142.974 1.52588e-05
35.055 142.937 1.52588e-05
31.555 142.935 1.52588e-05
17.8726 6.00583 0
24.5812 12.3378 1.52588e-05
24.5815 12.3737 1.52588e-05
24.5818 12.4096 1.52588e-05
17.8673 -0.994173 0
17.8791 -0.994202 0
31.5815 12.3471 1.52588e-05
31.5819 12.3829 1.52588e-05
43.2107 -94.5917 0
38.2158 -141.332 1.52588e-05
44.0827 -145.961 0.0386047
30.1666 -102.194 1.52588e-05
30.1654 -102.15 1.52588e-05
30.1642 -102.105 1.52588e-05
43.1187 -87.5872 0
43.2534 -87.5906 0
29.4886 -76.846 1.52588e-05
43.1643 -91.0894 0
43.2999 -91.0928 0
41.0872 -5.25726 0
143.907 1.53764 0.0167923
-131.608 13.8386 -3.31327e-09
-128.108 13.7882 -3.31327e-09
-124.48 27.3244 0
-124.48 27.3244 0
-120.98 27.2931 0
-120.98 27.2931 0
-63.5513 91.494 0
-63.4984 91.494 0
-47.3371 76.7974 0.0554504
-116.008 -135.239 0.0554504
-116.008 -135.239 0.0554504
-115.981 -138.739 0.0554504
-115.981 -138.739 0.0554504
-48.1736 -102.923 0.0554504
-48.1736 -102.923 0.0554504
-44.6835 -103.186 0.0554504
-47.5061 102.325 0.0554504
-47.5058 102.279 0.0554504
-47.5055 102.234 0.0554504
-63.4414 87.9941 0
-63.4943 87.994 0
-63.5553 94.994 0
34.877 -147.406 1.52588e-05
38.3758 -147.312 1.52588e-05
34.8767 -147.392 1.52588e-05
38.3754 -147.299 1.52588e-05
34.8755 -147.348 1.52588e-05
38.3742 -147.254 1.52588e-05
34.7171 -141.426 1.52588e-05
38.2158 -141.332 1.52588e-05
-44.0062 102.348 0.0554504
-44.0059 102.303 0.0554504
-44.0056 102.257 0.0554504
-44.0053 102.211 0.0554504
-36.5047 95.0249 0
-36.4239 95.025 0
-36.343 95.0251 0
-51.0058 102.256 0.0554504
-36.335 88.0251 0
-36.2542 88.0252 0
-131.484 -102.489 -1.52588e-05
-127.984 -102.465 -1.52588e-05
-131.484 -102.479 -1.52588e-05
-127.984 -102.455 -1.52588e-05
-131.484 -102.47 -1.52588e-05
-127.984 -102.446 -1.52588e-05
-131.484 -102.46 -1.52588e-05
-127.985 -102.436 -1.52588e-05
-131.571 -89.8701 -1.52588e-05
-128.071 -89.8461 -1.52588e-05
-131.66 -76.9116 -1.52588e-05
-128.16 -76.8876 -1.52588e-05
-131.66 -76.9115 -1.52588e-05
-128.16 -76.8874 -1.52588e-05
-131.66 -76.9113 -1.52588e-05
-128.16 -76.8873 -1.52588e-05
-140.365 2.89098 0
-140.36 2.89097 0
-140.354 2.89096 0
-125.055 -11.8434 -1.52293e-05
-125.055 -11.883 -1.52323e-05
-124.484 -102.431 -1.52588e-05
-120.985 -102.407 -1.52588e-05
-124.485 -102.422 -1.52588e-05
-120.985 -102.397 -1.52588e-05
-124.485 -102.412 -1.52588e-05
-120.985 -102.388 -1.52588e-05
-124.571 -89.8221 -1.52588e-05
-121.071 -89.798 -1.52588e-05
-124.66 -76.8635 -1.52588e-05
-121.16 -76.8395 -1.52588e-05
-124.66 -76.8634 -1.52588e-05
-121.16 -76.8394 -1.52588e-05
-124.66 -76.8633 -1.52588e-05
-121.16 -76.8392 -1.52588e-05
-124.66 -76.8631 -1.52588e-05
-121.16 -76.8391 -1.52588e-05
143.907 1.53764 0.0167923
155.015 -5.70226 0.0386047
90.1898 -1.54274 0
103.252 11.8526 0
103.252 11.9013 0
103.251 11.9496 0
-115.19 144.171 0.0554504
106.927 -11.8681 0
106.927 -11.8167 0
106.926 -11.7653 0
112.832 -2.10072 0.0167923
-120.547 75.8411 0
-124.047 75.8724 0
-127.98 27.3556 0
-127.98 27.3556 0
-131.48 27.3869 0
-131.48 27.3869 0
-120.005 136.572 0
-120.005 136.572 0
-123.505 136.603 0
-123.505 136.603 0
-127.303 103.231 0
-130.803 103.262 0
35.0817 12.3517 1.52588e-05
31.5819 12.3829 1.52588e-05
35.0814 12.3158 1.52588e-05
31.5815 12.3471 1.52588e-05
35.0811 12.2799 1.52588e-05
31.5812 12.3112 1.52588e-05
35.0808 12.2441 1.52588e-05
31.5809 12.2753 1.52588e-05
34.9773 0.655682 1.52588e-05
31.4774 0.686942 1.52588e-05
34.974 0.292009 1.52588e-05
31.4741 0.323269 1.52588e-05
34.899 -12.1939 1.52588e-05
31.399 -12.2051 1.52588e-05
34.899 -12.2375 1.52588e-05
31.3991 -12.249 1.52588e-05
34.8992 -12.2817 1.52588e-05
31.3992 -12.2936 1.52588e-05
-36.339 91.5251 0
-36.4199 91.525 0
-50.8373 76.8141 0.0554504
-50.8371 76.7743 0.0554504
-50.8368 76.7345 0.0554504
-54.506 102.279 0.0554504
-54.506 102.279 0.0554504
-51.0061 102.302 0.0554504
-115.223 151.171 0.0554504
-115.223 151.171 0.0554504
-115.239 154.671 0.0554504
-115.239 154.671 0.0554504
-127.303 103.225 0
-127.303 103.219 0
-109.695 87.9412 0
-109.679 87.9412 0
-112.311 -0.677313 0
-112.318 -0.677296 0
-128.11 13.7126 -5.51544e-09
-128.109 13.7507 -4.33693e-09
28.0817 12.3783 1.52588e-05
24.5818 12.4096 1.52588e-05
28.0814 12.3425 1.52588e-05
24.5815 12.3737 1.52588e-05
28.081 12.3066 1.52588e-05
24.5812 12.3378 1.52588e-05
27.9775 0.718201 1.52588e-05
24.4777 0.74946 1.52588e-05
27.9743 0.354529 1.52588e-05
24.4744 0.385788 1.52588e-05
27.899 -12.2163 1.52588e-05
24.399 -12.2276 1.52588e-05
27.8991 -12.2606 1.52588e-05
24.3992 -12.2721 1.52588e-05
27.8992 -12.3054 1.52588e-05
24.3993 -12.3172 1.52588e-05
27.8994 -12.3509 1.52588e-05
24.3994 -12.363 1.52588e-05
-36.2502 84.5252 0
-36.2542 88.0252 0
-36.331 84.5251 0
-36.335 88.0251 0
-36.4119 84.525 0
-36.4159 88.025 0
-36.4927 84.5249 0
-36.4967 88.0249 0
-49.167 84.5104 0
-49.171 88.0104 0
-63.3844 84.4942 0
-63.3884 87.9942 0
-63.4374 84.4941 0
-63.4414 87.9941 0
-63.4903 84.494 0
-63.4943 87.994 0
-36.2502 84.5252 0
-112.319 -4.1773 0
-121.555 -11.8299 -1.52262e-05
-121.555 -11.8699 -1.52293e-05
-121.555 -11.9093 -1.52323e-05
-36.339 91.5251 0
-36.343 95.0251 0
-36.4199 91.525 0
-36.4239 95.025 0
-36.5007 91.5249 0
-36.5047 95.0249 0
-49.175 91.5104 0
-49.179 95.0104 0
-63.3924 91.4942 0
-63.3964 94.9942 0
-63.4454 91.4941 0
-63.4494 94.9941 0
-63.4983 91.494 0
-63.5024 94.994 0
-63.5513 91.494 0
-63.5553 94.994 0
90.1823 -5.04281 0
90.1823 -5.04281 0
90.167 -1.54284 0
90.167 -1.54284 0
41.0567 1.74268 0
41.0567 1.74268 0
41.0414 5.24264 0
-112.189 -95.0628 0
-112.195 -91.5628 0
-112.201 -95.0628 0
-112.206 -91.5628 0
-112.213 -95.0628 0
-112.218 -91.5628 0
-112.225 -95.0629 0
-112.23 -91.5629 0
-126.313 -95.0841 0
-126.318 -91.5841 0
-126.313 -95.0841 0
-126.318 -91.5841 0
-141.425 -95.1068 0
-141.431 -91.6068 0
-141.484 -95.1069 0
-141.49 -91.6069 0
-141.543 -95.107 0
-141.549 -91.607 0
-191.543 102.655 0.0554504
-191.543 102.615 0.0554504
-177.342 87.8638 0
-177.318 87.8638 0
-177.294 87.8638 0
-184.599 -101.559 0.0554504
-184.599 -101.559 0.0554504
-188.099 -101.558 0.0554504
-135.959 -142.394 0.0554504
-135.959 -142.394 0.0554504
-135.932 -145.894 0.0554504
-135.932 -145.894 0.0554504
-131.046 75.9348 0
-112.309 2.82269 0
-112.316 2.82271 0
-128.555 -11.8568 -1.52323e-05
-128.555 -11.8962 -1.5235e-05
-184.543 102.693 0.0554504
-184.574 -11.5912 0.0554504
-184.574 -11.5912 0.0554504
-188.074 -11.5902 0.0554504
-188.074 -11.5902 0.0554504
-191.593 -78.5573 0.0554504
-191.593 -78.5573 0.0554504
-195.093 -78.5563 0.0554504
-195.093 -78.5563 0.0554504
-184.55 76.0832 0.0554504
-184.55 76.0832 0.0554504
-188.05 76.0842 0.0554504
-188.05 76.0842 0.0554504
-191.567 14.3513 0.0554504
-191.567 14.3513 0.0554504
-195.067 14.3523 0.0554504
-195.067 14.3523 0.0554504
-54.0599 34.8952 0.0554504
-54.0599 34.8952 0.0554504
-50.56 34.9184 0.0554504
-50.56 34.9184 0.0554504
-47.3369 76.7576 0.0554504
-43.8369 76.7808 0.0554504
-202.898 91.3346 0
-202.834 91.3346 0
-202.771 91.3347 0
-188.05 76.1016 0.0554504
-135.219 144.077 0.0554504
-135.219 144.077 0.0554504
-135.235 147.577 0.0554504
-135.235 147.577 0.0554504
-191.543 102.696 0.0554504
-191.543 102.696 0.0554504
-195.043 102.697 0.0554504
37.3022 208.752 0
37.3197 205.252 0
37.3373 201.752 0
197.04 13.7001 0
193.541 13.6595 0
190.041 13.6189 0
190.041 13.6189 0
7.05683 -207.483 0.0212627
7.07167 -203.983 0.0212627
7.08651 -200.483 0.0212627
7.08651 -200.483 0.0212627
22.2269 194.676 0
22.2445 191.176 0
22.2621 187.676 0
-120.303 103.168 0
-109.736 94.9411 0
-109.719 94.9412 0
-109.703 94.9412 0
-112.301 6.32268 0
-112.308 6.3227 0
-112.315 6.32272 0
-121.109 13.6874 -3.31327e-09
-195.05 76.1377 0.0554504
-195.05 76.121 0.0554504
-195.05 76.1035 0.0554504
-195.05 76.0861 0.0554504
26.4197 -207.565 0
26.4345 -204.065 0
26.4493 -200.565 0
7.11618 -193.483 0.0212627
7.13102 -189.983 0.0212627
7.14586 -186.483 0.0212627
7.14586 -186.483 0.0212627
26.7293 -104.586 1.52588e-05
26.7293 -104.586 1.52588e-05
30.228 -104.492 1.52588e-05
30.228 -104.492 1.52588e-05
33.6653 -102.101 1.52588e-05
37.1641 -102.007 1.52588e-05
27.7196 -141.613 1.52588e-05
31.2183 -141.519 1.52588e-05
33.7268 -104.399 1.52588e-05
37.2255 -104.305 1.52588e-05
37.2255 -104.305 1.52588e-05
-131.484 -102.489 -1.52588e-05
-141.425 -95.1068 0
-141.484 -95.1069 0
-141.543 -95.107 0
-176.99 -95.1604 0
-176.996 -91.6604 0
-177.059 -95.1605 0
-177.064 -91.6605 0
-177.127 -95.1606 0
-177.132 -91.6606 0
-177.195 -95.1607 0
-177.201 -91.6607 0
-189.838 -95.1798 0
-189.843 -91.6798 0
-189.838 -95.1798 0
-189.843 -91.6798 0
-189.838 -95.1798 0
-189.843 -91.6798 0
-200.437 -95.1957 0
-200.442 -91.6957 0
-201.004 -95.1966 0
-201.01 -91.6966 0
-201.017 -95.1966 0
-201.023 -91.6966 0
-201.03 -95.1966 0
-201.036 -91.6966 0
22.1566 208.676 0
22.1742 205.176 0
22.1917 201.676 0
29.7293 208.714 0
29.7469 205.214 0
29.7645 201.714 0
-128.109 13.7507 -4.33693e-09
-131.609 13.8013 -4.33693e-09
-128.11 13.7126 -5.51544e-09
-131.609 13.7635 -5.51544e-09
-128.11 13.6739 -6.85505e-09
-131.61 13.7251 -6.85505e-09
-128.342 1.14852 -7.27862e-06
-131.841 1.21457 -7.27862e-06
-128.342 1.14849 -7.27865e-06
-131.841 1.21454 -7.27865e-06
-128.342 1.14849 -7.27865e-06
-131.841 1.21454 -7.27865e-06
-128.342 1.14849 -7.27865e-06
-131.841 1.21454 -7.27865e-06
-128.554 -11.7764 -1.52262e-05
-132.054 -11.7496 -1.52262e-05
-128.555 -11.8169 -1.52293e-05
-132.055 -11.7904 -1.52293e-05
-128.555 -11.8568 -1.52323e-05
-132.055 -11.8306 -1.52323e-05
-128.555 -11.8962 -1.5235e-05
-132.055 -11.8703 -1.5235e-05
-276.038 8.97165 0
-272.538 8.99035 0
-268.99 19.6322 0
-265.49 19.5965 0
-265.49 19.5965 0
-61.5574 -0.80085 0
-47.1032 13.1858 0.0554504
-47.1029 13.2006 0.0554504
-275.63 -21.2082 0
-272.13 -21.1827 0
-272.13 -21.1827 0
-268.795 -6.1702 0
-265.296 -6.10338 0
-44.0062 102.348 0.0554504
-47.5061 102.325 0.0554504
-44.0059 102.303 0.0554504
-47.5058 102.279 0.0554504
-44.0056 102.257 0.0554504
-47.5055 102.234 0.0554504
-44.0053 102.211 0.0554504
-47.5052 102.188 0.0554504
-43.9231 89.7952 0.0554504
-47.423 89.772 0.0554504
-43.8377 76.9002 0.0554504
-47.3377 76.877 0.0554504
-43.8375 76.8604 0.0554504
-47.3374 76.8372 0.0554504
-43.8372 76.8206 0.0554504
-47.3371 76.7974 0.0554504
-124.484 -102.431 -1.52588e-05
-124.485 -102.422 -1.52588e-05
-141.554 -88.107 0
-141.613 -88.1071 0
-201.044 -95.1966 0
-201.049 -91.6966 0
-268.63 -21.1576 0
-268.63 -21.1576 0
-265.13 -21.1321 0
-265.13 -21.1321 0
-51.0058 102.256 0.0554504
-54.5057 102.233 0.0554504
-51.0055 102.21 0.0554504
-54.5054 102.187 0.0554504
-51.0051 102.165 0.0554504
-54.5051 102.142 0.0554504
-50.923 89.7489 0.0554504
-54.4229 89.7257 0.0554504
-50.8376 76.8539 0.0554504
-54.3375 76.8307 0.0554504
-50.8373 76.8141 0.0554504
-54.3372 76.7909 0.0554504
-50.8371 76.7743 0.0554504
-54.337 76.7511 0.0554504
-50.8368 76.7345 0.0554504
-54.3367 76.7113 0.0554504
-141.602 -95.1071 0
-141.602 -95.1071 0
-141.607 -91.6071 0
-141.607 -91.6071 0
-177.001 -88.1604 0
-177.001 -88.1604 0
-177.006 -84.6604 0
-177.006 -84.6604 0
-37.6932 -91.4506 0
-37.7096 -91.4506 0
-51.4208 -77.2992 0.0554504
-51.4207 -77.2717 0.0554504
-62.8788 -94.9885 0
-62.8788 -94.9885 0
-62.8841 -91.4885 0
-62.8841 -91.4885 0
-112.2 -88.0628 0
-112.2 -88.0628 0
-112.205 -84.5628 0
-112.205 -84.5628 0
19.2119 -94.8649 0
19.2119 -94.8649 0
19.2067 -91.3649 0
19.2067 -91.3649 0
-37.6984 -87.9506 0
-37.6984 -87.9506 0
-37.7037 -84.4506 0
-37.7037 -84.4506 0
-61.5712 -4.30083 0
-61.5712 -4.30083 0
-61.5627 -0.800837 0
-61.5627 -0.800837 0
-112.302 2.82268 0
-112.302 2.82268 0
-112.294 6.32267 0
-112.294 6.32267 0
-202.902 94.8345 0
-202.838 94.8346 0
-202.775 94.8347 0
-202.711 94.8348 0
-195.043 102.575 0.0554504
-195.043 102.616 0.0554504
-195.043 102.656 0.0554504
-62.8012 -91.4884 0
-47.9207 -77.291 0.0554504
-47.9206 -77.2649 0.0554504
17.8471 -4.49413 0
17.8471 -4.49413 0
17.8556 -0.994145 0
17.8556 -0.994145 0
-37.0423 2.63949 0
-37.0423 2.63949 0
-37.0338 6.13948 0
-37.0338 6.13948 0
-140.382 -4.109 0
-140.382 -4.109 0
-140.374 -0.609006 0
-140.374 -0.609006 0
-177.55 2.98149 0
-177.55 2.98149 0
-177.541 6.48148 0
-177.541 6.48148 0
-61.5456 6.19914 0
-61.5404 6.19913 0
-61.5351 6.19912 0
-61.5298 6.1991 0
-54.1025 13.2894 0.0554504
-54.1022 13.3043 0.0554504
-54.102 13.3192 0.0554504
-37.7202 -84.4506 0
-37.7367 -84.4506 0
-37.7531 -84.4507 0
-44.4206 -77.2841 0.0554504
-201.949 -3.95914 0
-201.94 -0.45915 0
-258.572 3.1787 0
-258.572 3.1787 0
-258.563 6.67869 0
-258.563 6.67869 0
-131.313 -127.45 -1.52588e-05
-131.313 -127.45 -1.52588e-05
-127.813 -127.426 -1.52588e-05
-127.813 -127.426 -1.52588e-05
-124.484 -102.441 -1.52588e-05
-120.984 -102.417 -1.52588e-05
19.2653 -91.3648 0
19.324 -91.3647 0
32.9892 -76.8239 1.52588e-05
32.9873 -76.7524 1.52588e-05
32.9854 -76.6809 1.52588e-05
-202.83 87.8346 0
-188.043 102.654 0.0554504
-188.043 102.695 0.0554504
-131.66 -76.9112 -1.52588e-05
-128.16 -76.8872 -1.52588e-05
-125.01 -25.918 -1.52588e-05
-125.01 -25.918 -1.52588e-05
-121.51 -25.8939 -1.52588e-05
-121.51 -25.8939 -1.52588e-05
25.9879 -76.8681 1.52588e-05
29.4867 -76.7745 1.52588e-05
31.7394 -30.0932 1.52588e-05
31.7394 -30.0932 1.52588e-05
35.2381 -29.9996 1.52588e-05
35.2381 -29.9996 1.52588e-05
-128.16 -76.8873 -1.52588e-05
-128.16 -76.8874 -1.52588e-05
-112.206 -91.5628 0
-112.195 -91.5628 0
-54.5999 -22.8091 0.0554504
-54.5999 -22.8091 0.0554504
-51.1 -22.8297 0.0554504
-51.1 -22.8297 0.0554504
-47.5314 -11.2383 0.0554504
-44.0315 -11.2622 0.0554504
-54.1017 13.334 0.0554504
-50.6023 13.2673 0.0554504
-47.06 34.9416 0.0554504
-47.06 34.9416 0.0554504
-43.5601 34.9647 0.0554504
-43.5601 34.9647 0.0554504
211.039 13.8615 0
207.54 13.8209 0
204.04 13.7803 0
196.74 -11.1087 0
193.241 -11.0678 0
189.741 -11.0269 0
96.4269 -11.9509 0
44.2734 -145.965 0.0386047
44.2734 -145.965 0.0386047
155.011 -9.96505 0.0386047
28.6778 -177.437 1.52588e-05
32.1765 -177.343 1.52588e-05
35.0339 -153.27 1.52588e-05
38.5326 -153.177 1.52588e-05
103.427 -11.8784 0
103.427 -11.827 0
90.1972 1.95732 0
90.1745 1.95722 0
90.1517 1.95712 0
151.528 8.45975 0.0386047
40.1736 144.898 0.0386047
40.1736 144.898 0.0386047
-121.16 -76.8391 -1.52588e-05
-112.24 -84.5629 0
-112.229 -84.5628 0
-112.217 -84.5628 0
28.0403 179.678 1.52588e-05
28.0403 179.658 1.52588e-05
-48.1507 -102.603 0.0554504
-48.1336 -102.339 0.0554504
-62.7236 -87.9883 0
-62.8065 -87.9884 0
-62.8894 -87.9885 0
19.1961 -84.3649 0
43.0722 -84.0849 0
43.2069 -84.0883 0
43.3416 -84.0917 0
17.8114 84.5871 0
17.8114 84.5871 0
17.8074 88.0871 0
17.8074 88.0871 0
-36.2582 91.5252 0
-36.2582 91.5252 0
-36.2622 95.0252 0
-36.2622 95.0252 0
-63.5433 84.494 0
-63.5433 84.494 0
-63.5473 87.994 0
-63.5473 87.994 0
-109.683 91.4412 0
-109.683 91.4412 0
-109.687 94.9412 0
-109.687 94.9412 0
17.8726 6.00583 0
40.9368 5.24219 0
40.9716 5.24234 0
41.0065 5.24249 0
-112.309 2.82269 0
-112.301 6.32268 0
-112.316 2.82271 0
-112.308 6.3227 0
-112.323 2.82273 0
-112.315 6.32272 0
-126.588 2.85745 0
-126.579 6.35744 0
-126.588 2.85745 0
-126.579 6.35744 0
-126.588 2.85745 0
-126.579 6.35744 0
-140.349 2.89094 0
-140.34 6.39093 0
-140.354 2.89096 0
-140.346 6.39095 0
-140.36 2.89097 0
-140.351 6.39096 0
-140.365 2.89098 0
-140.357 6.39097 0
-141.628 84.4046 0
-141.628 84.4046 0
-141.632 87.9046 0
-141.632 87.9046 0
-177.298 91.3638 0
-177.298 91.3638 0
-177.302 94.8638 0
-177.302 94.8638 0
-112.319 -4.1773 0
-112.311 -0.677313 0
-112.326 -4.17729 0
-112.318 -0.677296 0
-112.334 -4.17727 0
-112.325 -0.677279 0
-112.341 -4.17725 0
-112.332 -0.677262 0
-126.605 -4.14253 0
-126.596 -0.642542 0
-126.605 -4.14253 0
-126.596 -0.642542 0
-126.605 -4.14253 0
-126.596 -0.642542 0
-140.366 -4.10904 0
-140.357 -0.609047 0
-140.371 -4.10902 0
-140.363 -0.609033 0
-140.377 -4.10901 0
-140.368 -0.60902 0
-202.89 84.3346 0
-202.894 87.8346 0
-272.49 19.6681 0
-272.49 19.6681 0
-275.99 19.7038 0
-275.99 19.7038 0
19.2706 -94.8648 0
19.3293 -94.8647 0
19.3879 -94.8646 0
43.2107 -94.5917 0
24.7419 -30.2804 1.52588e-05
24.7419 -30.2804 1.52588e-05
28.2406 -30.1868 1.52588e-05
28.2406 -30.1868 1.52588e-05
31.3994 -12.3387 1.52588e-05
34.8994 -12.3266 1.52588e-05
35.0572 137.335 1.52588e-05
35.0572 137.335 1.52588e-05
31.5572 137.334 1.52588e-05
31.5572 137.334 1.52588e-05
28.0713 102.152 1.52588e-05
24.5713 102.151 1.52588e-05
41.7778 88.5569 0
41.7532 88.5571 0
17.8075 88.0871 0
-131.66 -76.9113 -1.52588e-05
-131.66 -76.9115 -1.52588e-05
-131.66 -76.9116 -1.52588e-05
-141.618 -84.6071 0
-184.593 -78.721 0.0554504
-184.593 -78.6666 0.0554504
-184.593 -78.6129 0.0554504
-184.593 -78.5592 0.0554504
35.0713 102.155 1.52588e-05
31.5713 102.153 1.52588e-05
35.0713 102.119 1.52588e-05
31.5713 102.117 1.52588e-05
35.0713 102.083 1.52588e-05
31.5713 102.081 1.52588e-05
35.0713 102.047 1.52588e-05
31.5713 102.045 1.52588e-05
35.0761 90.1029 1.52588e-05
31.5761 90.1015 1.52588e-05
35.0761 90.1029 1.52588e-05
31.5761 90.1015 1.52588e-05
35.0761 90.1029 1.52588e-05
31.5761 90.1015 1.52588e-05
35.0762 89.8498 1.52588e-05
31.5762 89.8484 1.52588e-05
35.0816 76.3495 1.52588e-05
31.5816 76.3481 1.52588e-05
35.0816 76.2725 1.52588e-05
31.5816 76.2711 1.52588e-05
35.0816 76.1955 1.52588e-05
31.5816 76.1941 1.52588e-05
19.2653 -91.3648 0
19.324 -91.3647 0
43.1643 -91.0894 0
43.2999 -91.0928 0
35.0817 76.1185 1.52588e-05
31.5817 76.1171 1.52588e-05
28.1 30.1993 1.52588e-05
28.1 30.1993 1.52588e-05
24.6 30.1979 1.52588e-05
24.6 30.1979 1.52588e-05
-47.5313 -11.2237 0.0554504
-44.0314 -11.2476 0.0554504
-47.5312 -11.2092 0.0554504
-44.0313 -11.2333 0.0554504
-47.5311 -11.195 0.0554504
-44.0312 -11.2192 0.0554504
-47.3376 0.891658 0.0554504
-43.8382 0.824958 0.0554504
-47.1038 13.156 0.0554504
-43.6044 13.0893 0.0554504
-47.1035 13.1709 0.0554504
-43.6041 13.1042 0.0554504
-47.1032 13.1858 0.0554504
-43.6039 13.1191 0.0554504
-47.1029 13.2006 0.0554504
-43.6036 13.1339 0.0554504
24.5821 12.4454 1.52588e-05
28.082 12.4142 1.52588e-05
31.6 30.2007 1.52588e-05
31.6 30.2007 1.52588e-05
35.1 30.2021 1.52588e-05
35.1 30.2021 1.52588e-05
-202.83 87.8346 0
-202.826 84.3346 0
-202.767 87.8347 0
-202.763 84.3347 0
-202.703 87.8348 0
-202.699 84.3348 0
-200.135 87.8377 0
-200.131 84.3377 0
-189.794 87.8495 0
-189.79 84.3495 0
-189.794 87.8495 0
-189.79 84.3495 0
-177.366 87.8638 0
-177.362 84.3638 0
-177.342 87.8638 0
-177.338 84.3638 0
-177.318 87.8638 0
-177.314 84.3638 0
-177.294 87.8638 0
-177.29 84.3638 0
41.8287 95.5567 0
41.8032 92.0568 0
99.7388 12.9377 0
99.7388 12.9377 0
96.2391 12.895 0
96.2391 12.895 0
-54.5312 -11.1906 0.0554504
-51.0313 -11.2145 0.0554504
-54.5312 -11.1758 0.0554504
-51.0312 -11.1997 0.0554504
-54.5311 -11.1611 0.0554504
-51.0311 -11.1852 0.0554504
-54.5309 -11.1467 0.0554504
-51.031 -11.1709 0.0554504
-54.3363 1.02506 0.0554504
-50.8369 0.958358 0.0554504
-54.1025 13.2894 0.0554504
-50.6032 13.2227 0.0554504
-54.1022 13.3043 0.0554504
-50.6029 13.2376 0.0554504
-54.102 13.3192 0.0554504
-50.6026 13.2525 0.0554504
35.0403 179.661 1.52588e-05
35.0403 179.661 1.52588e-05
31.5403 179.66 1.52588e-05
28.0527 148.536 1.52588e-05
24.5527 148.534 1.52588e-05
-202.902 94.8346 0
-202.898 91.3346 0
-202.838 94.8346 0
-202.834 91.3346 0
-202.775 94.8347 0
-202.771 91.3347 0
-202.711 94.8348 0
-202.707 91.3348 0
-200.143 94.8377 0
-200.139 91.3377 0
-189.802 94.8495 0
-189.798 91.3495 0
-189.802 94.8495 0
-189.798 91.3495 0
-177.374 94.8638 0
-177.37 91.3638 0
-177.35 94.8638 0
-177.346 91.3638 0
-177.326 94.8638 0
-177.322 91.3638 0
106.738 13.0232 0
106.738 13.0232 0
103.239 12.9805 0
103.239 12.9805 0
99.7514 11.9069 0
96.2517 11.8642 0
106.927 -11.9195 0
103.427 -11.9298 0
99.9307 -13.215 0
99.9307 -13.215 0
96.4307 -13.2254 0
96.4307 -13.2254 0
106.931 -13.1943 0
106.931 -13.1943 0
103.431 -13.2047 0
103.431 -13.2047 0
43.3881 -87.594 0
43.4763 -84.0951 0
210.739 -11.2722 0
207.24 -11.2313 0
203.74 -11.1904 0
69.4009 -193.747 0
69.4158 -190.247 0
69.4306 -186.747 0
69.3416 -207.747 0
69.3564 -204.247 0
69.3713 -200.747 0
69.3713 -200.747 0
42.3664 -193.633 0
42.3812 -190.133 0
42.396 -186.633 0
27.8994 -12.3509 1.52588e-05
27.8992 -12.3054 1.52588e-05
27.8991 -12.2606 1.52588e-05
40.9869 1.74237 0
41.0218 1.74253 0
143.936 -1.96226 0.0167923
155.025 5.3164 0.0386047
155.028 8.45654 0.0386047
143.936 -1.96226 0.0167923
151.511 -9.96149 0.0386047
151.525 5.31925 0.0386047
151.52 -0.189901 0.0386047
151.515 -5.69905 0.0386047
151.511 -9.96185 0.0386047
99.752 11.8586 0
112.832 -2.10072 0.0167923
-124.313 -127.43 -1.52588e-05
-124.313 -127.402 -1.52588e-05
155.028 8.45654 0.0386047
155.025 5.31604 0.0386047
155.02 -0.193112 0.0386047
155.015 -5.70226 0.0386047
-191.543 102.655 0.0554504
-195.043 102.656 0.0554504
-191.543 102.615 0.0554504
-195.043 102.616 0.0554504
-191.543 102.574 0.0554504
-195.043 102.575 0.0554504
-191.546 89.6007 0.0554504
-195.046 89.6017 0.0554504
-191.55 76.1374 0.0554504
-195.05 76.1384 0.0554504
-191.55 76.12 0.0554504
-195.05 76.121 0.0554504
-191.55 76.1026 0.0554504
-195.05 76.1036 0.0554504
-191.55 76.0852 0.0554504
-195.05 76.0861 0.0554504
-177.069 -88.1605 0
-177.074 -84.6605 0
-177.138 -88.1606 0
-177.143 -84.6606 0
-177.206 -88.1607 0
-177.211 -84.6607 0
-189.849 -88.1798 0
-189.854 -84.6798 0
-189.849 -88.1798 0
-189.854 -84.6798 0
-189.849 -88.1798 0
-189.854 -84.6798 0
-200.447 -88.1957 0
-200.453 -84.6957 0
-201.015 -88.1966 0
-201.02 -84.6966 0
-201.028 -88.1966 0
-201.033 -84.6966 0
-201.041 -88.1966 0
-201.046 -84.6966 0
-201.054 -88.1966 0
-201.059 -84.6967 0
42.307 -207.632 0
42.3218 -204.132 0
42.3367 -200.632 0
34.3626 -207.599 0
34.3774 -204.099 0
34.3923 -200.599 0
34.3624 -207.599 0
34.3772 -204.099 0
34.392 -200.599 0
-176.996 -91.6604 0
-177.064 -91.6605 0
-177.132 -91.6606 0
-191.593 -78.611 0.0554504
19.2014 -87.8649 0
19.2601 -87.8648 0
43.1187 -87.5872 0
43.2534 -87.5906 0
39.1803 -177.393 1.52588e-05
39.1782 -177.314 1.52588e-05
39.1761 -177.235 1.52588e-05
39.174 -177.156 1.52588e-05
-177.069 -88.1605 0
-191.599 -101.461 0.0554504
-191.599 -101.509 0.0554504
-191.599 -101.557 0.0554504
-184.567 14.3004 0.0554504
-184.567 14.3172 0.0554504
-184.567 14.3333 0.0554504
-184.567 14.3494 0.0554504
35.6795 -177.407 1.52588e-05
35.6774 -177.329 1.52588e-05
35.6753 -177.25 1.52588e-05
-176.99 -95.1604 0
-177.059 -95.1605 0
-177.127 -95.1606 0
-177.195 -95.1607 0
-177.558 -0.518497 0
-177.604 -0.518387 0
-177.649 -0.518277 0
-191.567 14.3352 0.0554504
-201.036 -91.6966 0
-201.023 -91.6966 0
-188.093 -78.6663 0.0554504
-188.093 -78.6119 0.0554504
-188.093 -78.5583 0.0554504
-177.567 -4.01849 0
-177.612 -4.01838 0
-177.657 -4.01827 0
-177.703 -4.01816 0
-201.059 -84.6966 0
-201.03 -95.1966 0
-201.017 -95.1966 0
-201.004 -95.1966 0
-195.099 -101.411 0.0554504
-195.099 -101.459 0.0554504
-195.099 -101.508 0.0554504
-195.099 -101.557 0.0554504
-201.054 -88.1966 0
-201.041 -88.1966 0
-188.099 -101.51 0.0554504
36.4842 -76.5874 1.52588e-05
32.9854 -76.681 1.52588e-05
36.4861 -76.6588 1.52588e-05
32.9873 -76.7524 1.52588e-05
36.488 -76.7303 1.52588e-05
32.9892 -76.8239 1.52588e-05
36.4899 -76.8018 1.52588e-05
32.9912 -76.8953 1.52588e-05
36.8209 -89.1776 1.52588e-05
33.3222 -89.2711 1.52588e-05
36.8212 -89.1873 1.52588e-05
33.3224 -89.2809 1.52588e-05
36.8212 -89.1873 1.52588e-05
33.3224 -89.2809 1.52588e-05
36.8249 -89.3273 1.52588e-05
33.3262 -89.4209 1.52588e-05
37.1605 -101.873 1.52588e-05
33.6617 -101.967 1.52588e-05
37.1617 -101.918 1.52588e-05
33.6629 -102.011 1.52588e-05
37.1629 -101.963 1.52588e-05
33.6641 -102.056 1.52588e-05
-201.923 6.54083 0
-37.0594 -4.36049 0
-37.0509 -0.8605 0
-37.0849 -4.36043 0
-37.0764 -0.860438 0
-37.1104 -4.36036 0
-37.1019 -0.860376 0
-37.1359 -4.3603 0
-37.1274 -0.860313 0
-49.0975 -4.33119 0
-49.089 -0.831198 0
-61.5553 -4.30087 0
-61.5468 -0.800875 0
-61.5606 -4.30085 0
-61.5521 -0.800863 0
-61.5659 -4.30084 0
-61.5574 -0.80085 0
-48.1507 -102.603 0.0554504
-44.6587 -102.84 0.0554504
-48.1336 -102.339 0.0554504
-44.6402 -102.554 0.0554504
-48.1205 -102.117 0.0554504
-44.626 -102.313 0.0554504
-47.994 -89.7304 0.0554504
-44.494 -89.751 0.0554504
-47.921 -77.3473 0.0554504
-44.4211 -77.3679 0.0554504
-47.9209 -77.3198 0.0554504
-44.4209 -77.3404 0.0554504
-47.9207 -77.2923 0.0554504
-44.4208 -77.313 0.0554504
-47.9206 -77.2649 0.0554504
-44.4206 -77.2855 0.0554504
-191.593 -78.611 0.0554504
-195.093 -78.61 0.0554504
-191.593 -78.6647 0.0554504
-195.093 -78.6637 0.0554504
-191.593 -78.7184 0.0554504
-195.093 -78.7174 0.0554504
-191.596 -89.9286 0.0554504
-195.096 -89.9276 0.0554504
-191.596 -89.9286 0.0554504
-195.096 -89.9276 0.0554504
-191.599 -101.411 0.0554504
-195.099 -101.41 0.0554504
-191.599 -101.46 0.0554504
-195.099 -101.459 0.0554504
-191.599 -101.509 0.0554504
-195.099 -101.508 0.0554504
-191.599 -101.557 0.0554504
-195.099 -101.556 0.0554504
-191.567 14.3352 0.0554504
-195.067 14.3362 0.0554504
-191.567 14.3191 0.0554504
-195.067 14.3201 0.0554504
-191.567 14.303 0.0554504
-195.067 14.304 0.0554504
-191.571 1.26252 0.0554504
-195.071 1.26349 0.0554504
-191.571 1.26249 0.0554504
-195.071 1.26346 0.0554504
-191.574 -11.5685 0.0554504
-195.074 -11.5675 0.0554504
-191.574 -11.5754 0.0554504
-195.074 -11.5745 0.0554504
-191.574 -11.5823 0.0554504
-195.074 -11.5814 0.0554504
-191.574 -11.5892 0.0554504
-195.074 -11.5883 0.0554504
-184.593 -78.5592 0.0554504
-188.093 -78.5582 0.0554504
-184.593 -78.6129 0.0554504
-188.093 -78.6119 0.0554504
-184.593 -78.6666 0.0554504
-188.093 -78.6656 0.0554504
-184.593 -78.7203 0.0554504
-188.093 -78.7193 0.0554504
-184.596 -89.9305 0.0554504
-188.096 -89.9295 0.0554504
-184.596 -89.9305 0.0554504
-188.096 -89.9296 0.0554504
-184.599 -101.413 0.0554504
-188.099 -101.412 0.0554504
-184.599 -101.462 0.0554504
-188.099 -101.461 0.0554504
-184.599 -101.511 0.0554504
-188.099 -101.51 0.0554504
28.0549 142.973 1.52588e-05
24.5549 142.971 1.52588e-05
28.055 142.934 1.52588e-05
24.555 142.933 1.52588e-05
28.0572 137.332 1.52588e-05
24.5572 137.331 1.52588e-05
-184.567 14.3494 0.0554504
-188.067 14.3504 0.0554504
-184.567 14.3333 0.0554504
-188.067 14.3343 0.0554504
-184.567 14.3172 0.0554504
-188.067 14.3181 0.0554504
-184.567 14.3011 0.0554504
-188.067 14.302 0.0554504
-184.571 1.26059 0.0554504
-188.071 1.26156 0.0554504
-184.571 1.26056 0.0554504
-188.071 1.26153 0.0554504
-184.574 -11.5704 0.0554504
-188.074 -11.5695 0.0554504
-184.574 -11.5774 0.0554504
-188.074 -11.5764 0.0554504
-184.574 -11.5843 0.0554504
-188.074 -11.5833 0.0554504
-184.543 102.694 0.0554504
-188.043 102.695 0.0554504
-184.543 102.653 0.0554504
-188.043 102.654 0.0554504
-184.543 102.613 0.0554504
-188.043 102.614 0.0554504
-184.543 102.572 0.0554504
-188.043 102.573 0.0554504
-184.546 89.5988 0.0554504
-188.046 89.5998 0.0554504
-184.55 76.1355 0.0554504
-188.05 76.1364 0.0554504
-184.55 76.1181 0.0554504
-188.05 76.119 0.0554504
-184.55 76.1006 0.0554504
-188.05 76.1016 0.0554504
106.751 11.9923 0
106.751 11.944 0
106.752 11.8957 0
106.753 11.847 0
112.73 1.39886 0.0167923
-177.29 84.3638 0
-177.314 84.3638 0
-177.338 84.3638 0
-177.362 84.3638 0
-127.984 -102.465 -1.52588e-05
-127.984 -102.455 -1.52588e-05
-112.223 -88.0628 0
-112.212 -88.0628 0
-177.322 91.3638 0
-191.55 76.1193 0.0554504
-191.55 76.1026 0.0554504
-191.55 76.0852 0.0554504
-177.595 2.9816 0
-177.587 6.48159 0
-177.64 2.98171 0
-177.632 6.4817 0
-177.686 2.98182 0
-177.677 6.48181 0
-189.817 3.01135 0
-189.808 6.51134 0
-200.284 3.03683 0
-200.276 6.53682 0
-200.284 3.03683 0
-200.276 6.53682 0
-201.758 3.04042 0
-201.75 6.54041 0
-201.816 3.04056 0
-201.808 6.54055 0
-201.874 3.0407 0
-201.866 6.54069 0
-201.932 3.04084 0
-201.923 6.54083 0
-124.66 -76.8631 -1.52588e-05
-124.66 -76.8633 -1.52588e-05
-141.49 -91.6069 0
-141.549 -91.607 0
-177.567 -4.01849 0
-177.558 -0.518497 0
-177.612 -4.01838 0
-177.604 -0.518387 0
-177.657 -4.01827 0
-177.649 -0.518277 0
-177.703 -4.01816 0
-177.694 -0.518167 0
-189.834 -3.98863 0
-189.825 -0.48864 0
-200.301 -3.96315 0
-200.293 -0.463161 0
-200.301 -3.96315 0
-200.293 -0.463161 0
-201.775 -3.95956 0
-201.767 -0.459573 0
-201.833 -3.95942 0
-201.825 -0.459432 0
-201.891 -3.95928 0
-201.883 -0.459291 0
-112.212 -88.0628 0
-112.217 -84.5628 0
-112.223 -88.0628 0
-112.229 -84.5628 0
-112.235 -88.0629 0
-112.24 -84.5629 0
-126.324 -88.0841 0
-126.329 -84.5841 0
-126.324 -88.0841 0
-126.329 -84.5841 0
-141.436 -88.1068 0
-141.441 -84.6068 0
-141.495 -88.1069 0
-141.5 -84.6069 0
-141.554 -88.107 0
-141.559 -84.607 0
-141.613 -88.1071 0
-141.618 -84.6071 0
-177.595 2.9816 0
-191.574 -11.5761 0.0554504
-191.574 -11.5823 0.0554504
-191.574 -11.5892 0.0554504
-201.883 -0.459291 0
-201.825 -0.459432 0
-188.067 14.3175 0.0554504
-188.067 14.3343 0.0554504
-188.067 14.3504 0.0554504
-201.891 -3.95928 0
-201.833 -3.95942 0
-201.775 -3.95956 0
-195.074 -11.5682 0.0554504
-195.074 -11.5745 0.0554504
-195.074 -11.5814 0.0554504
-195.074 -11.5883 0.0554504
-55.1537 -102.396 0.0554504
-51.6636 -102.659 0.0554504
-55.1346 -102.13 0.0554504
-51.6427 -102.366 0.0554504
-55.1204 -101.909 0.0554504
-51.627 -102.124 0.0554504
-55.1094 -101.723 0.0554504
-51.6149 -101.92 0.0554504
-54.9939 -89.6892 0.0554504
-51.4939 -89.7098 0.0554504
-54.9209 -77.3061 0.0554504
-51.421 -77.3267 0.0554504
-54.9208 -77.2786 0.0554504
-51.4208 -77.2992 0.0554504
-54.9206 -77.2511 0.0554504
-51.4207 -77.2717 0.0554504
-201.932 3.04084 0
-201.874 3.0407 0
-188.074 -11.5833 0.0554504
36.4842 -76.5874 1.52588e-05
36.4861 -76.6588 1.52588e-05
36.488 -76.7303 1.52588e-05
36.4899 -76.8018 1.52588e-05
43.0722 -84.0849 0
43.2069 -84.0883 0
43.3416 -84.0917 0
35.0817 12.3517 1.52588e-05
40.9368 5.24219 0
40.9716 5.24234 0
41.0065 5.24249 0
-63.4903 84.494 0
-63.4374 84.4941 0
-63.3844 84.4942 0
-54.3375 76.8307 0.0554504
-54.3372 76.7909 0.0554504
-54.337 76.7511 0.0554504
-54.3367 76.7113 0.0554504
-140.357 6.39097 0
-140.351 6.39096 0
-140.346 6.39095 0
-140.34 6.39093 0
-131.61 13.7251 -6.85505e-09
-131.609 13.7635 -5.51544e-09
-131.609 13.8013 -4.33693e-09
-125.237 151.124 0.0554504
-125.254 154.624 0.0554504
-125.237 151.124 0.0554504
-125.254 154.624 0.0554504
-135.252 151.077 0.0554504
-135.268 154.577 0.0554504
-54.9204 -77.2236 0.0554504
-51.4205 -77.2443 0.0554504
-47.6 -22.8517 0.0554504
-47.6 -22.8517 0.0554504
-44.1001 -22.8723 0.0554504
-44.1001 -22.8723 0.0554504
103.427 -11.8784 0
106.927 -11.8681 0
103.427 -11.827 0
106.927 -11.8167 0
103.426 -11.7757 0
106.926 -11.7653 0
103.387 0.294176 0
106.887 0.318754 0
103.387 0.294177 0
106.887 0.318755 0
103.369 2.21328 0
106.869 2.25124 0
103.369 2.21329 0
106.869 2.25125 0
103.369 2.21332 0
106.869 2.25128 0
103.369 2.21333 0
106.869 2.25129 0
103.253 11.8047 0
106.753 11.8474 0
103.252 11.853 0
106.752 11.8957 0
103.252 11.9013 0
106.751 11.944 0
103.251 11.9496 0
106.751 11.9923 0
-140.368 -0.60902 0
-124.609 13.7 -4.33693e-09
-124.609 13.7378 -3.31327e-09
-141.631 87.9046 0
-141.627 84.4046 0
-141.63 87.9046 0
-141.626 84.4046 0
-141.629 87.9046 0
-141.625 84.4046 0
-125.672 87.9229 0
-125.668 84.4229 0
-109.728 87.9411 0
-109.724 84.4411 0
-109.711 87.9412 0
-109.707 84.4412 0
-109.695 87.9412 0
-109.691 84.4412 0
-109.679 87.9412 0
-109.674 84.4412 0
-132.055 -11.8703 -1.5235e-05
-121.109 13.6874 -3.31327e-09
-124.609 13.7378 -3.31327e-09
-121.11 13.6493 -4.33693e-09
-124.609 13.7 -4.33693e-09
-121.11 13.6107 -5.51544e-09
-124.61 13.6616 -5.51544e-09
-121.111 13.5715 -6.85505e-09
-124.611 13.6227 -6.85505e-09
-121.343 1.01643 -7.27862e-06
-124.843 1.08248 -7.27862e-06
-121.343 1.0164 -7.27865e-06
-124.843 1.08245 -7.27865e-06
-121.343 1.0164 -7.27865e-06
-124.843 1.08245 -7.27865e-06
-121.343 1.0164 -7.27865e-06
-124.843 1.08245 -7.27865e-06
-121.555 -11.8299 -1.52262e-05
-125.054 -11.8032 -1.52262e-05
-121.555 -11.8699 -1.52293e-05
-125.055 -11.8434 -1.52293e-05
-121.555 -11.9092 -1.52323e-05
-125.055 -11.883 -1.52323e-05
-55.1536 -102.395 0.0554504
-51.6636 -102.659 0.0554504
-51.6426 -102.365 0.0554504
-37.7314 -87.9506 0
-37.7149 -87.9506 0
-44.6587 -102.84 0.0554504
-44.6402 -102.554 0.0554504
-44.626 -102.313 0.0554504
-37.6879 -94.9506 0
-62.8012 -91.4884 0
-62.7959 -94.9884 0
-62.7183 -91.4883 0
-62.7131 -94.9883 0
-62.6355 -91.4882 0
-62.6302 -94.9881 0
-49.7413 -91.4687 0
-49.736 -94.9687 0
-48.5379 -91.4669 0
-48.5326 -94.9669 0
-37.7426 -91.4507 0
-37.7373 -94.9507 0
-37.7261 -91.4506 0
-37.7209 -94.9506 0
-37.7096 -91.4506 0
-37.7044 -94.9506 0
-37.6932 -91.4506 0
-37.6879 -94.9506 0
-62.8946 -84.4885 0
-62.8894 -87.9885 0
-62.8118 -84.4884 0
-62.8065 -87.9884 0
-62.7289 -84.4883 0
-62.7236 -87.9883 0
-62.646 -84.4882 0
-62.6408 -87.9882 0
-49.7518 -84.4687 0
-49.7466 -87.9687 0
-48.5485 -84.4669 0
-48.5432 -87.9669 0
-37.7531 -84.4507 0
-37.7479 -87.9507 0
-37.7367 -84.4506 0
-37.7314 -87.9506 0
-37.7202 -84.4506 0
-37.7149 -87.9506 0
-62.8946 -84.4885 0
-62.8118 -84.4884 0
-62.7289 -84.4883 0
-62.646 -84.4882 0
-54.9209 -77.3061 0.0554504
-54.9208 -77.2786 0.0554504
-54.9206 -77.2511 0.0554504
-115.19 144.171 0.0554504
-115.206 147.671 0.0554504
-125.204 144.124 0.0554504
-125.221 147.624 0.0554504
-125.204 144.124 0.0554504
-125.221 147.624 0.0554504
112.817 1.39925 0.0167923
112.817 1.39925 0.0167923
143.922 -1.96232 0.0167923
143.922 -1.96232 0.0167923
143.922 -1.96232 0.0167923
96.4269 -11.9505 0
99.9269 -11.9401 0
96.4268 -11.8991 0
99.9268 -11.8888 0
96.4266 -11.8477 0
99.9266 -11.8374 0
96.4265 -11.7963 0
99.9265 -11.786 0
96.3868 0.24502 0
99.8867 0.269598 0
96.3868 0.24502 0
99.8867 0.269598 0
96.3699 2.13735 0
99.8697 2.17531 0
96.3699 2.13736 0
99.8697 2.17532 0
96.3699 2.13739 0
99.8697 2.17535 0
96.3699 2.1374 0
99.8697 2.17536 0
96.2534 11.7193 0
99.7532 11.762 0
96.2528 11.7676 0
99.7526 11.8103 0
96.2523 11.8159 0
99.752 11.8586 0
-127.004 136.664 0
-127.004 136.649 0
-127.005 136.634 0
-132.01 -25.9661 -1.52588e-05
-132.01 -25.9661 -1.52588e-05
-128.51 -25.942 -1.52588e-05
-128.51 -25.942 -1.52588e-05
-125.055 -11.9222 -1.5235e-05
-121.555 -11.9481 -1.5235e-05
99.9269 -11.9401 0
99.9268 -11.8892 0
112.73 1.39886 0.0167923
28.0713 102.116 1.52588e-05
28.0713 102.08 1.52588e-05
41.7532 88.5571 0
41.7778 88.5569 0
90.1364 5.45709 0
90.1592 5.45719 0
90.1819 5.45729 0
90.2047 5.45739 0
35.0713 102.155 1.52588e-05
41.7548 95.5572 0
41.7794 95.557 0
41.804 95.5569 0
90.1898 -1.54274 0
112.832 -2.10072 0.0167923
90.1517 1.95712 0
90.1745 1.95722 0
90.1972 1.95732 0
112.73 1.39886 0.0167923
19.1961 -84.3649 0
-120.985 -102.407 -1.52588e-05
-120.985 -102.397 -1.52588e-05
-120.985 -102.388 -1.52588e-05
-112.189 -95.0628 0
19.2706 -94.8648 0
19.3293 -94.8647 0
19.3879 -94.8646 0
26.6642 -102.154 1.52588e-05
26.6654 -102.199 1.52588e-05
26.6666 -102.243 1.52588e-05
26.6678 -102.288 1.52588e-05
19.2014 -87.8649 0
19.2601 -87.8648 0
33.6641 -102.056 1.52588e-05
29.4886 -76.846 1.52588e-05
25.9898 -76.9396 1.52588e-05
29.4905 -76.9174 1.52588e-05
25.9917 -77.011 1.52588e-05
29.4924 -76.9889 1.52588e-05
25.9937 -77.0825 1.52588e-05
29.8234 -89.3647 1.52588e-05
26.3247 -89.4583 1.52588e-05
29.8237 -89.3745 1.52588e-05
26.3249 -89.4681 1.52588e-05
29.8237 -89.3745 1.52588e-05
26.3249 -89.4681 1.52588e-05
29.8274 -89.5145 1.52588e-05
26.3287 -89.6081 1.52588e-05
30.163 -102.06 1.52588e-05
26.6642 -102.154 1.52588e-05
30.1642 -102.105 1.52588e-05
26.6654 -102.199 1.52588e-05
30.1654 -102.15 1.52588e-05
26.6666 -102.243 1.52588e-05
30.1666 -102.194 1.52588e-05
26.6678 -102.288 1.52588e-05
